G04 ================== begin FILE IDENTIFICATION RECORD ==================*
G04 Layout Name:  proiectcef.brd*
G04 Film Name:    BOTTOM*
G04 File Format:  Gerber RS274X*
G04 File Origin:  Cadence Allegro 17.2-S025*
G04 Origin Date:  Thu Dec 04 16:11:56 2025*
G04 *
G04 Layer:  ETCH/BOTTOM*
G04 Layer:  PIN/BOTTOM*
G04 Layer:  VIA CLASS/BOTTOM*
G04 *
G04 Offset:    (0.0000 0.0000)*
G04 Mirror:    No*
G04 Mode:      Positive*
G04 Rotation:  0*
G04 FullContactRelief:  No*
G04 UndefLineWidth:     0.0000*
G04 ================== end FILE IDENTIFICATION RECORD ====================*
%FSLAX25Y25*MOMM*%
%IR0*IPPOS*OFA0.00000B0.00000*MIA0B0*SFA1.00000B1.00000*%
%ADD10C,.8*%
%ADD11C,.45*%
%ADD12C,.65*%
G75*
%LPD*%
G75*
G54D10*
X300000Y1210000D03*
X294140Y2085860D03*
X580000Y965860D03*
X850000Y1450000D03*
X660000Y1400000D03*
X730000Y1240000D03*
X1040000D03*
X520000Y1440000D03*
X850000Y2200000D03*
X580000Y2130000D03*
X590000Y3337990D03*
X600000Y3670000D03*
X1580000Y1310000D03*
X1310000Y2540000D03*
X1610000Y2050000D03*
Y2370000D03*
X1500000Y2120000D03*
X1610000Y3070000D03*
X1200000Y3020000D03*
X1640000Y2930000D03*
X1870000Y2760000D03*
X1630000Y3713360D03*
X2350000Y270000D03*
X2210000Y620000D03*
X2220000Y1510000D03*
Y1200000D03*
X2590000Y1970000D03*
X2140000D03*
X2266290Y2590000D03*
X2480000Y2340000D03*
X2101890Y2348110D03*
X2266290Y2790000D03*
X2150000Y3000000D03*
X2010000Y2720000D03*
X2150000Y3710000D03*
X2600000Y3450000D03*
X2030000Y3500000D03*
X2780000Y230000D03*
Y480000D03*
X2800000Y1020000D03*
X3160000Y1150000D03*
X2663890Y1200000D03*
X3345740Y2205740D03*
X3070000Y3240000D03*
X3730000Y1840000D03*
G54D11*
G01X300000Y1210000D02*
X375200D01*
X520000Y1354800D01*
Y1440000D01*
G01X660000Y1400000D02*
X580000Y1320000D01*
Y965860D01*
G01X850000Y2200000D02*
Y1450000D01*
G01X1040000Y1240000D02*
X730000D01*
G01X580000Y2130000D02*
Y3252790D01*
X590000Y3262790D01*
Y3337990D01*
G01X1310000Y2540000D02*
X1530000D01*
X1737500Y2747500D01*
Y3017700D01*
X1685200Y3070000D01*
X1610000D01*
G01X1500000Y2120000D02*
X1553180Y2173180D01*
X1766820D01*
X2100000Y1840000D01*
X3730000D01*
G01X1640000Y2930000D02*
X1290000D01*
X1200000Y3020000D01*
G01X2210000Y620000D02*
X2300000D01*
X2353180Y566820D01*
Y497980D01*
X2350000Y494800D01*
Y270000D01*
G01X2220000Y1200000D02*
Y1510000D01*
G01X2590000Y1970000D02*
X2140000D01*
G01X2266290Y2590000D02*
Y2790000D01*
G01X2010000Y2720000D02*
Y2440000D01*
X2101890Y2348110D01*
G01X2030000Y3500000D02*
X2474800D01*
X2524800Y3450000D01*
X2600000D01*
G01X2663890Y1200000D02*
Y1080910D01*
X2724800Y1020000D01*
X2800000D01*
G01X3160000Y1150000D02*
Y1270000D01*
X3730000Y1840000D01*
G54D12*
G01X600000Y3670000D02*
X400000D01*
X294140Y3564140D01*
Y2085860D01*
G01X600000Y3670000D02*
X685200D01*
X728560Y3713360D01*
X1630000D01*
G01X1580000Y1310000D02*
X1700000D01*
X1927500Y1082500D01*
X2277500D01*
X2430000Y930000D01*
Y795000D01*
X2495000Y730000D01*
X2715000D01*
X2780000Y665000D01*
Y480000D01*
G01X1580000Y1310000D02*
Y1934800D01*
X1610000Y1964800D01*
Y2050000D01*
G01X1870000Y2760000D02*
Y2636840D01*
X1670250Y2437090D01*
Y2430250D01*
X1610000Y2370000D01*
G01X1870000Y2760000D02*
Y2900000D01*
X2210000Y3240000D01*
X3070000D01*
G01X2150000Y3710000D02*
X2064800D01*
X2061440Y3713360D01*
X1630000D01*
G01X2480000Y2340000D02*
X3211480D01*
X3345740Y2205740D01*
G01X2150000Y3000000D02*
Y2530000D01*
X2340000Y2340000D01*
X2480000D01*
G01X2780000Y480000D02*
Y230000D01*
M02*
