G04 ================== begin FILE IDENTIFICATION RECORD ==================*
G04 Layout Name:  proiectcef.brd*
G04 Film Name:    SMBOT*
G04 File Format:  Gerber RS274X*
G04 File Origin:  Cadence Allegro 17.2-S025*
G04 Origin Date:  Thu Dec 04 16:11:56 2025*
G04 *
G04 Layer:  VIA CLASS/SOLDERMASK_BOTTOM*
G04 Layer:  PIN/SOLDERMASK_BOTTOM*
G04 Layer:  PACKAGE GEOMETRY/SOLDERMASK_BOTTOM*
G04 Layer:  DRC ERROR CLASS/SOLDERMASK_BOTTOM*
G04 Layer:  BOARD GEOMETRY/SOLDERMASK_BOTTOM*
G04 *
G04 Offset:    (0.0000 0.0000)*
G04 Mirror:    No*
G04 Mode:      Positive*
G04 Rotation:  0*
G04 FullContactRelief:  No*
G04 UndefLineWidth:     0.0000*
G04 ================== end FILE IDENTIFICATION RECORD ====================*
%FSLAX25Y25*MOMM*%
%IR0*IPPOS*OFA0.00000B0.00000*MIA0B0*SFA1.00000B1.00000*%
%ADD10C,.8*%
%LPD*%
G75*
G54D10*
X300000Y1210000D03*
X294140Y2085860D03*
X580000Y965860D03*
X850000Y1450000D03*
X660000Y1400000D03*
X730000Y1240000D03*
X1040000D03*
X520000Y1440000D03*
X850000Y2200000D03*
X580000Y2130000D03*
X590000Y3337990D03*
X600000Y3670000D03*
X1580000Y1310000D03*
X1310000Y2540000D03*
X1610000Y2050000D03*
Y2370000D03*
X1500000Y2120000D03*
X1610000Y3070000D03*
X1200000Y3020000D03*
X1640000Y2930000D03*
X1870000Y2760000D03*
X1630000Y3713360D03*
X2350000Y270000D03*
X2210000Y620000D03*
X2220000Y1510000D03*
Y1200000D03*
X2590000Y1970000D03*
X2140000D03*
X2266290Y2590000D03*
X2480000Y2340000D03*
X2101890Y2348110D03*
X2266290Y2790000D03*
X2150000Y3000000D03*
X2010000Y2720000D03*
X2150000Y3710000D03*
X2600000Y3450000D03*
X2030000Y3500000D03*
X2780000Y230000D03*
Y480000D03*
X2800000Y1020000D03*
X3160000Y1150000D03*
X2663890Y1200000D03*
X3345740Y2205740D03*
X3070000Y3240000D03*
X3730000Y1840000D03*
M02*
