G04 ================== begin FILE IDENTIFICATION RECORD ==================*
G04 Layout Name:  proiectcef.brd*
G04 Film Name:    SMTOP*
G04 File Format:  Gerber RS274X*
G04 File Origin:  Cadence Allegro 17.2-S025*
G04 Origin Date:  Thu Dec 04 16:11:56 2025*
G04 *
G04 Layer:  VIA CLASS/SOLDERMASK_TOP*
G04 Layer:  PIN/SOLDERMASK_TOP*
G04 Layer:  PACKAGE GEOMETRY/SOLDERMASK_TOP*
G04 Layer:  DRC ERROR CLASS/SOLDERMASK_TOP*
G04 Layer:  BOARD GEOMETRY/SOLDERMASK_TOP*
G04 *
G04 Offset:    (0.0000 0.0000)*
G04 Mirror:    No*
G04 Mode:      Positive*
G04 Rotation:  0*
G04 FullContactRelief:  No*
G04 UndefLineWidth:     0.0000*
G04 ================== end FILE IDENTIFICATION RECORD ====================*
%FSLAX25Y25*MOMM*%
%IR0*IPPOS*OFA0.00000B0.00000*MIA0B0*SFA1.00000B1.00000*%
%ADD13C,.8*%
%ADD12R,.9144X1.27*%
%ADD11R,1.27X.9144*%
%ADD14R,.7899X1.46*%
%ADD15C,2.*%
%ADD10R,1.27X1.27*%
%ADD16R,3.048X1.9304*%
%LPD*%
G75*
G54D10*
X230000Y380000D03*
Y593360D03*
X1110000Y300000D03*
X730000Y380000D03*
X1110000Y513360D03*
X730000Y593360D03*
X580000Y1720000D03*
Y1933360D03*
X830000Y3460000D03*
Y3673360D03*
X1570000Y300000D03*
X1620000Y850000D03*
Y1063360D03*
X1570000Y513360D03*
X1250000Y1310000D03*
Y1523360D03*
X1390000Y3070000D03*
Y3283360D03*
X1870000Y2920000D03*
Y3133360D03*
X1390000Y3550000D03*
Y3763360D03*
X1860000Y3500000D03*
Y3713360D03*
X2550000Y350000D03*
X2630000Y860000D03*
X2550000Y563360D03*
X1920000Y1350000D03*
Y1563360D03*
X2440000Y1300000D03*
Y1513360D03*
X2410000Y2900000D03*
Y3113360D03*
Y3390000D03*
Y3603360D03*
X2990000Y266640D03*
Y480000D03*
X2843360Y860000D03*
X3170000Y750000D03*
Y963360D03*
X2680000Y2220000D03*
X2893360D03*
X3070000Y3030000D03*
X2856640D03*
X2860000Y2750000D03*
X3073360D03*
X3070000Y3450000D03*
X2856640D03*
X3690000Y1350000D03*
X3476640D03*
G54D11*
X230000Y1070000D03*
Y861720D03*
X935740Y1005860D03*
X730000Y1110000D03*
Y901720D03*
X435740Y965860D03*
X1375740Y975860D03*
X1170000Y1080000D03*
Y871720D03*
X1255260Y2337140D03*
X1461000Y2233000D03*
Y2441280D03*
X1763260Y2337140D03*
X1310000Y2641720D03*
X1515740Y2745860D03*
X1310000Y2850000D03*
X2190000Y270000D03*
X2265740Y865860D03*
X2060000Y970000D03*
Y761720D03*
X1984260Y374140D03*
X2190000Y478280D03*
X2555740Y1805860D03*
X2350000Y1701720D03*
X1969000Y2233000D03*
Y2441280D03*
X2615740Y2585860D03*
X2410000Y2481720D03*
X2350000Y1910000D03*
X2410000Y2690000D03*
X3140000Y1861720D03*
X3005740Y1405860D03*
X2800000Y1510000D03*
Y1301720D03*
X3345740Y1965860D03*
X3140000Y2070000D03*
X3524260Y2144140D03*
X3730000Y2040000D03*
Y2248280D03*
G54D12*
X294140Y1645740D03*
X190000Y1440000D03*
X344140Y2445740D03*
X240000Y2240000D03*
X230000Y2670000D03*
X334140Y2875740D03*
X325860Y3564260D03*
X221720Y3770000D03*
X398280Y1440000D03*
X448280Y2240000D03*
X438280Y2670000D03*
X935860Y2944260D03*
X1040000Y3150000D03*
X831720D03*
X430000Y3770000D03*
X1680000Y1790000D03*
X1356860Y1773260D03*
X1784140Y1995740D03*
X1461000Y1979000D03*
X1252720D03*
X1888280Y1790000D03*
X2244140Y2305740D03*
X2140000Y2100000D03*
X2348280D03*
X3520000Y2590000D03*
X3728280D03*
X3624140Y2795740D03*
G54D13*
X300000Y1210000D03*
X294140Y2085860D03*
X580000Y965860D03*
X850000Y1450000D03*
X660000Y1400000D03*
X730000Y1240000D03*
X1040000D03*
X520000Y1440000D03*
X850000Y2200000D03*
X580000Y2130000D03*
X590000Y3337990D03*
X600000Y3670000D03*
X1580000Y1310000D03*
X1310000Y2540000D03*
X1610000Y2050000D03*
Y2370000D03*
X1500000Y2120000D03*
X1610000Y3070000D03*
X1200000Y3020000D03*
X1640000Y2930000D03*
X1870000Y2760000D03*
X1630000Y3713360D03*
X2350000Y270000D03*
X2210000Y620000D03*
X2220000Y1510000D03*
Y1200000D03*
X2590000Y1970000D03*
X2140000D03*
X2266290Y2590000D03*
X2480000Y2340000D03*
X2101890Y2348110D03*
X2266290Y2790000D03*
X2150000Y3000000D03*
X2010000Y2720000D03*
X2150000Y3710000D03*
X2600000Y3450000D03*
X2030000Y3500000D03*
X2780000Y230000D03*
Y480000D03*
X2800000Y1020000D03*
X3160000Y1150000D03*
X2663890Y1200000D03*
X3345740Y2205740D03*
X3070000Y3240000D03*
X3730000Y1840000D03*
G54D14*
X320000Y3337990D03*
X225000Y3142010D03*
X415000D03*
G54D15*
X500000Y200000D03*
X3500000D03*
G54D16*
X3690000Y1050000D03*
Y450560D03*
X3680000Y3130560D03*
Y3730000D03*
M02*
