G04 ================== begin FILE IDENTIFICATION RECORD ==================*
G04 Layout Name:  proiectcef.brd*
G04 Film Name:    TOP*
G04 File Format:  Gerber RS274X*
G04 File Origin:  Cadence Allegro 17.2-S025*
G04 Origin Date:  Thu Dec 04 16:11:56 2025*
G04 *
G04 Layer:  ETCH/TOP*
G04 Layer:  PIN/TOP*
G04 Layer:  VIA CLASS/TOP*
G04 *
G04 Offset:    (0.0000 0.0000)*
G04 Mirror:    No*
G04 Mode:      Positive*
G04 Rotation:  0*
G04 FullContactRelief:  No*
G04 UndefLineWidth:     0.0000*
G04 ================== end FILE IDENTIFICATION RECORD ====================*
%FSLAX25Y25*MOMM*%
%IR0*IPPOS*OFA0.00000B0.00000*MIA0B0*SFA1.00000B1.00000*%
%ADD13C,.8*%
%ADD14R,.59X1.2601*%
%ADD12R,.9144X1.27*%
%ADD11R,1.27X.9144*%
%ADD15C,1.*%
%ADD10R,1.27X1.27*%
%ADD16R,3.048X1.9304*%
%ADD17C,.45*%
%ADD18C,.65*%
G75*
%LPD*%
G75*
G54D10*
X230000Y380000D03*
Y593360D03*
X1110000Y300000D03*
X730000Y380000D03*
X1110000Y513360D03*
X730000Y593360D03*
X580000Y1720000D03*
Y1933360D03*
X830000Y3460000D03*
Y3673360D03*
X1570000Y300000D03*
X1620000Y850000D03*
Y1063360D03*
X1570000Y513360D03*
X1250000Y1310000D03*
Y1523360D03*
X1390000Y3070000D03*
Y3283360D03*
X1870000Y2920000D03*
Y3133360D03*
X1390000Y3550000D03*
Y3763360D03*
X1860000Y3500000D03*
Y3713360D03*
X2550000Y350000D03*
X2630000Y860000D03*
X2550000Y563360D03*
X1920000Y1350000D03*
Y1563360D03*
X2440000Y1300000D03*
Y1513360D03*
X2410000Y2900000D03*
Y3113360D03*
Y3390000D03*
Y3603360D03*
X2990000Y266640D03*
Y480000D03*
X2843360Y860000D03*
X3170000Y750000D03*
Y963360D03*
X2680000Y2220000D03*
X2893360D03*
X3070000Y3030000D03*
X2856640D03*
X2860000Y2750000D03*
X3073360D03*
X3070000Y3450000D03*
X2856640D03*
X3690000Y1350000D03*
X3476640D03*
G54D11*
X230000Y1070000D03*
Y861720D03*
X935740Y1005860D03*
X730000Y1110000D03*
Y901720D03*
X435740Y965860D03*
X1375740Y975860D03*
X1170000Y1080000D03*
Y871720D03*
X1255260Y2337140D03*
X1461000Y2233000D03*
Y2441280D03*
X1763260Y2337140D03*
X1310000Y2641720D03*
X1515740Y2745860D03*
X1310000Y2850000D03*
X2190000Y270000D03*
X2265740Y865860D03*
X2060000Y970000D03*
Y761720D03*
X1984260Y374140D03*
X2190000Y478280D03*
X2555740Y1805860D03*
X2350000Y1701720D03*
X1969000Y2233000D03*
Y2441280D03*
X2615740Y2585860D03*
X2410000Y2481720D03*
X2350000Y1910000D03*
X2410000Y2690000D03*
X3140000Y1861720D03*
X3005740Y1405860D03*
X2800000Y1510000D03*
Y1301720D03*
X3345740Y1965860D03*
X3140000Y2070000D03*
X3524260Y2144140D03*
X3730000Y2040000D03*
Y2248280D03*
G54D12*
X294140Y1645740D03*
X190000Y1440000D03*
X344140Y2445740D03*
X240000Y2240000D03*
X230000Y2670000D03*
X334140Y2875740D03*
X325860Y3564260D03*
X221720Y3770000D03*
X398280Y1440000D03*
X448280Y2240000D03*
X438280Y2670000D03*
X935860Y2944260D03*
X1040000Y3150000D03*
X831720D03*
X430000Y3770000D03*
X1680000Y1790000D03*
X1356860Y1773260D03*
X1784140Y1995740D03*
X1461000Y1979000D03*
X1252720D03*
X1888280Y1790000D03*
X2244140Y2305740D03*
X2140000Y2100000D03*
X2348280D03*
X3520000Y2590000D03*
X3728280D03*
X3624140Y2795740D03*
G54D13*
X300000Y1210000D03*
X294140Y2085860D03*
X580000Y965860D03*
X850000Y1450000D03*
X660000Y1400000D03*
X730000Y1240000D03*
X1040000D03*
X520000Y1440000D03*
X850000Y2200000D03*
X580000Y2130000D03*
X590000Y3337990D03*
X600000Y3670000D03*
X1580000Y1310000D03*
X1310000Y2540000D03*
X1610000Y2050000D03*
Y2370000D03*
X1500000Y2120000D03*
X1610000Y3070000D03*
X1200000Y3020000D03*
X1640000Y2930000D03*
X1870000Y2760000D03*
X1630000Y3713360D03*
X2350000Y270000D03*
X2210000Y620000D03*
X2220000Y1510000D03*
Y1200000D03*
X2590000Y1970000D03*
X2140000D03*
X2266290Y2590000D03*
X2480000Y2340000D03*
X2101890Y2348110D03*
X2266290Y2790000D03*
X2150000Y3000000D03*
X2010000Y2720000D03*
X2150000Y3710000D03*
X2600000Y3450000D03*
X2030000Y3500000D03*
X2780000Y230000D03*
Y480000D03*
X2800000Y1020000D03*
X3160000Y1150000D03*
X2663890Y1200000D03*
X3345740Y2205740D03*
X3070000Y3240000D03*
X3730000Y1840000D03*
G54D14*
X320000Y3337990D03*
X225000Y3142010D03*
X415000D03*
G54D15*
X500000Y200000D03*
X3500000D03*
G54D16*
X3690000Y1050000D03*
Y450560D03*
X3680000Y3130560D03*
Y3730000D03*
G54D17*
G01X230000Y593360D02*
Y861720D01*
G01X300000Y1210000D02*
X230000Y1140000D01*
Y1070000D01*
G01X660000Y1400000D02*
X567500Y1307500D01*
X223800D01*
X190000Y1341300D01*
Y1440000D01*
G01X730000Y1240000D02*
X654800D01*
X624800Y1210000D01*
X300000D01*
G01X438280Y2670000D02*
Y2557660D01*
X344140Y2463520D01*
Y2445740D01*
G01D02*
X263220D01*
X220000Y2402520D01*
Y2260000D01*
X240000Y2240000D01*
G01X590000Y3337990D02*
X320000D01*
G01X325860Y3564260D02*
Y3442060D01*
X320000Y3436200D01*
Y3337990D01*
G01X334140Y2875740D02*
Y2999360D01*
X225000Y3108500D01*
Y3142010D01*
G01X334140Y2875740D02*
X270000D01*
X230000Y2835740D01*
Y2670000D01*
G01X221720Y3770000D02*
Y3609260D01*
X266720Y3564260D01*
X325860D01*
G01X850000Y1450000D02*
X935740Y1364260D01*
Y1005860D01*
G01X435740Y965860D02*
X580000D01*
G01X730000Y1110000D02*
Y1240000D01*
G01Y901720D02*
Y593360D01*
G01X1110000Y513360D02*
Y811720D01*
X1170000Y871720D01*
G01X580000Y1720000D02*
Y1555200D01*
X660000Y1475200D01*
Y1400000D01*
G01X1040000Y1240000D02*
X1170000Y1110000D01*
Y1080000D01*
G01X398280Y1440000D02*
X520000D01*
G01X850000Y2200000D02*
Y2680000D01*
X918150Y2748150D01*
X938150D01*
G01X580000Y2130000D02*
Y1933360D01*
G01X1040000Y3150000D02*
X1155000D01*
X1200000Y3105000D01*
Y3020000D01*
G01X935860Y2944260D02*
Y2750440D01*
X938150Y2748150D01*
G01D02*
X1190370D01*
X1292220Y2850000D01*
X1310000D01*
G01X1200000Y3020000D02*
X1124260Y2944260D01*
X935860D01*
G01X830000Y3460000D02*
Y3361300D01*
X831720Y3359580D01*
Y3150000D01*
G01X1620000Y850000D02*
X1751720D01*
X1840000Y761720D01*
X2060000D01*
G01X1620000Y850000D02*
X1420680D01*
X1375740Y894940D01*
Y975860D01*
G01X1570000Y513360D02*
X1110000D01*
G01X2060000Y970000D02*
X1880000D01*
X1786640Y1063360D01*
X1620000D01*
G01X1680000Y1790000D02*
X1663260Y1773260D01*
X1580000D01*
G01D02*
X1356860D01*
G01X1580000D02*
X1582110Y1775370D01*
Y1940000D01*
X1543110Y1979000D01*
X1461000D01*
G01X1250000Y1523360D02*
Y1622060D01*
X1252720Y1624780D01*
Y1979000D01*
G01X1255260Y2337140D02*
Y2202520D01*
X1461000Y1996780D01*
Y1979000D01*
G01X1310000Y2641720D02*
Y2540000D01*
G01X1640000Y2930000D02*
Y2760000D01*
X1792300Y2607700D01*
X2137690D01*
X2219990Y2690000D01*
X2410000D01*
G01X2044260Y1995740D02*
X1784140D01*
G01X2044260D02*
X1910220Y2129780D01*
X1803480D01*
X1763260Y2170000D01*
Y2337140D01*
G01X1515740Y2745860D02*
Y2585740D01*
X1461000Y2531000D01*
Y2441280D01*
G01X1969000D02*
X2008100D01*
X2020000Y2453180D01*
Y2516820D01*
X2006820Y2530000D01*
X1567500D01*
X1478780Y2441280D01*
X1461000D01*
G01Y2233000D02*
X1500000Y2194000D01*
Y2120000D01*
G01X1390000Y3070000D02*
X1610000D01*
G01X1390000Y3283360D02*
Y3550000D01*
G01X2049310Y3290920D02*
X1928860D01*
X1870000Y3232060D01*
Y3133360D01*
G01X1860000Y3500000D02*
X2030000D01*
G01X2190000Y270000D02*
X2350000D01*
G01X2550000Y350000D02*
X2800000D01*
X2883360Y266640D01*
X2990000D01*
G01X2220000Y1200000D02*
Y1100000D01*
X2265740Y1054260D01*
Y865860D01*
G01X2210000Y620000D02*
X2120800D01*
X2060000Y680800D01*
Y761720D01*
G01X2440000Y1300000D02*
X2341300D01*
X2333800Y1307500D01*
X2122500D01*
X2060000Y1245000D01*
Y970000D01*
G01X2630000Y860000D02*
Y742060D01*
X2550000Y662060D01*
Y563360D01*
G01X3160000Y1150000D02*
X3127500Y1117500D01*
X2759610D01*
X2630000Y987890D01*
Y860000D01*
G01X2663890Y1200000D02*
X2386740Y922850D01*
Y576320D01*
X2288700Y478280D01*
X2190000D01*
G01X2800000Y1510000D02*
X2701300D01*
X2697940Y1513360D01*
X2440000D01*
G01X2220000Y1510000D02*
X2295200D01*
X2298560Y1513360D01*
X2440000D01*
G01X2893360Y2220000D02*
Y2033360D01*
X2665860Y1805860D01*
X2555740D01*
G01X1920000Y1563360D02*
X1920110Y1563470D01*
Y1649890D01*
X1888280Y1681720D01*
Y1790000D01*
G01X2350000Y1910000D02*
Y1999580D01*
X2348280Y2001300D01*
Y2100000D01*
G01X2615740Y2585860D02*
X2714440D01*
X2893360Y2406940D01*
Y2220000D01*
G01X2140000Y2100000D02*
Y1970000D01*
G01X2590000D02*
X2680000Y2060000D01*
Y2220000D01*
G01X2140000Y1970000D02*
X2070000D01*
X2044260Y1995740D01*
G01X2410000Y2481720D02*
X2299370D01*
X2266290Y2514800D01*
Y2590000D01*
G01X2101890Y2348110D02*
X1986780Y2233000D01*
X1969000D01*
G01X2266290Y2790000D02*
X2376290Y2900000D01*
X2410000D01*
G01Y3390000D02*
Y3113360D01*
G01X2030000Y3500000D02*
Y3424800D01*
X2050000Y3404800D01*
Y3291610D01*
X2049310Y3290920D01*
G01X2010000Y2720000D02*
Y2795200D01*
X2049310Y2834510D01*
Y3290920D01*
G01X2600000Y3450000D02*
X2856640D01*
G01X2800000Y1020000D02*
X2843360Y976640D01*
Y860000D01*
G01X3690000Y1050000D02*
X3410000D01*
X3323360Y963360D01*
X3170000D01*
G01X3140000Y1861720D02*
X3041300D01*
X2800000Y1620420D01*
Y1510000D01*
G01X2663890Y1200000D02*
Y1265200D01*
X2700410Y1301720D01*
X2800000D01*
G01X3476640Y1350000D02*
X3222110D01*
X3072110Y1200000D01*
X2663890D01*
G01X3140000Y2070000D02*
Y2140000D01*
X3060000Y2220000D01*
X2893360D01*
G01X3520000Y2590000D02*
X2905000D01*
X2860000Y2635000D01*
Y2750000D01*
G01X2856640Y3030000D02*
Y3450000D01*
G01X3073360Y2750000D02*
Y2927940D01*
X3070000Y2931300D01*
Y3030000D01*
G01X3690000Y1050000D02*
Y1350000D01*
G01X3730000Y1840000D02*
Y2040000D01*
G01Y1840000D02*
X3851000Y1961000D01*
Y2729000D01*
X3784260Y2795740D01*
X3624140D01*
G01X3524260Y2144140D02*
Y1496320D01*
X3476640Y1448700D01*
Y1350000D01*
G01X3520000Y2590000D02*
Y2280000D01*
X3524260Y2275740D01*
Y2144140D01*
G54D18*
G01X230000Y380000D02*
X730000D01*
G01X294140Y1645740D02*
Y2085860D01*
G01X1570000Y300000D02*
X1110000D01*
G01X730000Y380000D02*
X810000Y300000D01*
X1110000D01*
G01X1250000Y1310000D02*
X1141300D01*
X1050000Y1401300D01*
Y1820000D01*
X630000Y2240000D01*
X448280D01*
G01X600000Y3693360D02*
X523360Y3770000D01*
X430000D01*
G01X600000Y3693360D02*
Y3670000D01*
G01Y3693360D02*
Y3768560D01*
X690270Y3858830D01*
X1294530D01*
X1390000Y3763360D01*
G01X600000Y3670000D02*
X717940D01*
X721300Y3673360D01*
X830000D01*
G01X1984260Y374140D02*
X1764140D01*
X1690000Y300000D01*
X1570000D01*
G01X1580000Y1310000D02*
X1771300D01*
X1811300Y1350000D01*
X1920000D01*
G01X1250000Y1310000D02*
X1580000D01*
G01X1610000Y2050000D02*
Y2370000D01*
G01X1870000Y2920000D02*
Y2760000D01*
G01X1630000Y3713360D02*
X1860000D01*
G01X2780000Y230000D02*
X2700000Y150000D01*
X2049260D01*
X1984260Y215000D01*
Y374140D01*
G01X2350000Y1701720D02*
X2201720D01*
X2100000Y1600000D01*
Y1415000D01*
X2035000Y1350000D01*
X1920000D01*
G01X2480000Y2340000D02*
X2369320D01*
X2335060Y2305740D01*
X2244140D01*
G01X2150000Y3700000D02*
Y3000000D01*
G01X2410000Y3603360D02*
X2246640D01*
X2150000Y3700000D01*
G01D02*
Y3710000D01*
G01D02*
X2240000Y3800000D01*
X2830000D01*
X2900000Y3730000D01*
X3680000D01*
G01X2990000Y480000D02*
X2780000D01*
G01X3690000Y450560D02*
X3128140D01*
X3098700Y480000D01*
X2990000D01*
G01X3170000Y750000D02*
X3061300D01*
X3011300Y700000D01*
X2900000D01*
X2780000Y580000D01*
Y480000D01*
G01X3345740Y1965860D02*
Y1728080D01*
X3023520Y1405860D01*
X3005740D01*
G01X3345740Y1965860D02*
Y2205740D01*
G01X3680000Y3130560D02*
X3389440D01*
X3070000Y3450000D01*
G01Y3240000D02*
Y3450000D01*
M02*
