M48
METRIC,TZ
T01C.4
;LEADER: 12 
;HEADER: 
;CODE  : ASCII 
;FILE  : DRILL-1-2.drl for  ... layers TOP and BOTTOM
;DESIGN: proiectcef.brd
;T01 Holesize 1. = 0.400000 Tolerance = +0.000000/-0.000000 PLATED MM Quantity = 45
%
G90
T01
X2663890Y1200000
X2800000Y1020000
X1500000Y2120000
X3160000Y1150000
X3730000Y1840000
X2010000Y2720000
X2101890Y2348110
X2030000Y3500000
X2600000Y3450000
X1630000Y3860000
X2480000Y2340000
X2150000Y3000000
X600000Y3670000
X2150000Y3800000
X3345740Y2205740
X294140Y2085860
X500000Y3510000
X580000Y2130000
X2266290Y2790000
X2266290Y2590000
X230000Y1210000
X520000Y1440000
X1040000Y1240000
X730000Y1240000
X2140000Y1970000
X2590000Y1970000
X1870000Y2760000
X1610000Y2370000
X1610000Y2050000
X3070000Y3240000
X2780000Y230000
X2780000Y480000
X1580000Y1310000
X580000Y965860
X660000Y1400000
X2350000Y270000
X2210000Y620000
X850000Y1450000
X850000Y2200000
X1640000Y2930000
X1200000Y3020000
X1610000Y3070000
X1310000Y2540000
X2220000Y1200000
X2220000Y1510000
M30
