M48
METRIC,TZ
T01C.3
;LEADER: 12 
;HEADER: 
;CODE  : ASCII 
;FILE  : proiectcef-1-2.drl for  ... layers TOP and BOTTOM
;DESIGN: proiectcef.brd
;T01 Holesize 1. = 0.300000 Tolerance = +0.000000/-0.000000 PLATED MM Quantity = 49
%
G90
T01
X2850000Y1060000
X2530000Y1060000
X2663890Y1200000
X3730000Y1840000
X3160000Y1150000
X1500000Y2120000
X2600000Y3450000
X2050000Y3500000
X2049310Y2669290
X2101890Y2348110
X2480000Y2340000
X3345740Y2205740
X2150000Y3000000
X2150000Y3800000
X1630000Y3860000
X600000Y3693360
X410000Y1180000
X500000Y3510000
X580000Y3230000
X580000Y2130000
X170000Y3450000
X2250000Y2900000
X2250000Y2590000
X800000Y1240000
X1040000Y1240000
X2140000Y1970000
X2590000Y1970000
X1580000Y1310000
X2780000Y230000
X2780000Y480000
X1580000Y2050000
X1610000Y2370000
X3070000Y3240000
X1870000Y2760000
X2780000Y480000
X580000Y1220000
X580000Y965860
X1850000Y850000
X2020000Y610000
X2300000Y610000
X2350000Y270000
X850000Y2580000
X850000Y1450000
X1200000Y3020000
X1590000Y2920000
X1680000Y3070000
X1310000Y2540000
X2220000Y1510000
X2220000Y1180000
M30
