G04 ================== begin FILE IDENTIFICATION RECORD ==================*
G04 Layout Name:  proiectcef.brd*
G04 Film Name:    SSTOP*
G04 File Format:  Gerber RS274X*
G04 File Origin:  Cadence Allegro 17.2-S025*
G04 Origin Date:  Sat Dec 06 01:27:03 2025*
G04 *
G04 Layer:  REF DES/SILKSCREEN_TOP*
G04 Layer:  PACKAGE GEOMETRY/SILKSCREEN_TOP*
G04 Layer:  BOARD GEOMETRY/SILKSCREEN_TOP*
G04 *
G04 Offset:    (0.0000 0.0000)*
G04 Mirror:    No*
G04 Mode:      Positive*
G04 Rotation:  0*
G04 FullContactRelief:  No*
G04 UndefLineWidth:     0.0000*
G04 ================== end FILE IDENTIFICATION RECORD ====================*
%FSLAX25Y25*MOMM*%
%IR0*IPPOS*OFA0.00000B0.00000*MIA0B0*SFA1.00000B1.00000*%
%ADD10C,.15*%
%ADD11C,.127*%
%ADD12C,.1524*%
%ADD13C,.1999*%
G75*
%LPD*%
G75*
G54D10*
G01X948770Y322530D02*
X848770D01*
Y364190D01*
X853770Y377530D01*
X860440Y385860D01*
X873770Y389190D01*
X887100Y385860D01*
X895440Y375860D01*
X900440Y364190D01*
Y322530D01*
G01Y364190D02*
X948770Y389190D01*
G01X937110Y447530D02*
X945440Y459190D01*
X948770Y472530D01*
X945440Y485860D01*
X935440Y497530D01*
X920440Y505860D01*
X905440Y509190D01*
X887100D01*
X872100Y505860D01*
X858770Y497530D01*
X852100Y487530D01*
X848770Y475860D01*
X852100Y462520D01*
X858770Y452530D01*
X868770Y445860D01*
X882110Y442530D01*
X893770Y445860D01*
X905440Y454190D01*
X912110Y464190D01*
X913770Y475860D01*
X910440Y489190D01*
X902100Y499190D01*
X887100Y509190D01*
G01X1026670Y1123330D02*
X1021670Y1130000D01*
X1013340Y1135000D01*
X1001670Y1138330D01*
X991670Y1135000D01*
X985000Y1128330D01*
X980000Y1116670D01*
Y1071670D01*
X1080000D01*
Y1126670D01*
X1073330Y1138330D01*
X1063330Y1145000D01*
X1051670Y1148330D01*
X1040000Y1145000D01*
X1030000Y1135000D01*
X1026670Y1123330D01*
Y1071670D01*
G01X1080000Y1230000D02*
X1078330Y1216660D01*
X1071670Y1205000D01*
X1061670Y1195000D01*
X1050000Y1188330D01*
X1036670Y1185000D01*
X1023330D01*
X1010000Y1188330D01*
X998330Y1195000D01*
X988330Y1205000D01*
X981670Y1216660D01*
X980000Y1230000D01*
X981670Y1243330D01*
X988330Y1255000D01*
X998330Y1265000D01*
X1010000Y1271670D01*
X1023330Y1275000D01*
X1036670D01*
X1050000Y1271670D01*
X1061670Y1265000D01*
X1071670Y1255000D01*
X1078330Y1243330D01*
X1080000Y1230000D01*
G01X1026670Y1363330D02*
X1021670Y1370000D01*
X1013340Y1375000D01*
X1001670Y1378330D01*
X991670Y1375000D01*
X985000Y1368330D01*
X980000Y1356670D01*
Y1311670D01*
X1080000D01*
Y1366670D01*
X1073330Y1378330D01*
X1063330Y1385000D01*
X1051670Y1388330D01*
X1040000Y1385000D01*
X1030000Y1375000D01*
X1026670Y1363330D01*
Y1311670D01*
G01X1080000Y1503330D02*
Y1436670D01*
X980000D01*
Y1503330D01*
G01X1028330Y1476670D02*
Y1436670D01*
G01X1066670Y1555000D02*
X1075000Y1568330D01*
X1080000Y1583330D01*
Y1596670D01*
X1075000Y1610000D01*
X1066670Y1620000D01*
X1055000Y1625000D01*
X1043340Y1621670D01*
X1033330Y1613330D01*
X1026670Y1598330D01*
X1023330Y1578330D01*
X1016670Y1566670D01*
X1005000Y1561670D01*
X993330Y1565000D01*
X985000Y1573330D01*
X980000Y1585000D01*
Y1596670D01*
X983330Y1608330D01*
X991670Y1618330D01*
G01X1026670Y1843330D02*
X1021670Y1850000D01*
X1013340Y1855000D01*
X1001670Y1858330D01*
X991670Y1855000D01*
X985000Y1848330D01*
X980000Y1836670D01*
Y1791670D01*
X1080000D01*
Y1846670D01*
X1073330Y1858330D01*
X1063330Y1865000D01*
X1051670Y1868330D01*
X1040000Y1865000D01*
X1030000Y1855000D01*
X1026670Y1843330D01*
Y1791670D01*
G01X1080000Y1950000D02*
X1078330Y1936660D01*
X1071670Y1925000D01*
X1061670Y1915000D01*
X1050000Y1908330D01*
X1036670Y1905000D01*
X1023330D01*
X1010000Y1908330D01*
X998330Y1915000D01*
X988330Y1925000D01*
X981670Y1936660D01*
X980000Y1950000D01*
X981670Y1963330D01*
X988330Y1975000D01*
X998330Y1985000D01*
X1010000Y1991670D01*
X1023330Y1995000D01*
X1036670D01*
X1050000Y1991670D01*
X1061670Y1985000D01*
X1071670Y1975000D01*
X1078330Y1963330D01*
X1080000Y1950000D01*
G01X1030000Y2080000D02*
Y2113330D01*
X1060000D01*
X1070000Y2103330D01*
X1076670Y2091670D01*
X1080000Y2075000D01*
X1076670Y2058330D01*
X1070000Y2046670D01*
X1060000Y2036670D01*
X1048330Y2030000D01*
X1035000Y2026670D01*
X1023330D01*
X1013340Y2030000D01*
X1001670Y2036670D01*
X991670Y2046670D01*
X985000Y2056660D01*
X980000Y2070000D01*
Y2081670D01*
X983330Y2095000D01*
X990000Y2105000D01*
G01X1080000Y2153330D02*
X980000D01*
Y2186670D01*
X985000Y2200000D01*
X991670Y2210000D01*
X1001670Y2218330D01*
X1013340Y2225000D01*
X1030000Y2226670D01*
X1046670Y2225000D01*
X1058330Y2218330D01*
X1068340Y2210000D01*
X1075000Y2200000D01*
X1080000Y2186670D01*
Y2153330D01*
G01Y2268330D02*
X980000Y2310000D01*
X1080000Y2351670D01*
G01X1045000Y2336670D02*
Y2283330D01*
G01X1080000Y2391670D02*
X980000D01*
X1080000Y2468330D01*
X980000D01*
G01X570000Y1080000D02*
X568330Y1066660D01*
X561670Y1055000D01*
X551670Y1045000D01*
X540000Y1038330D01*
X526670Y1035000D01*
X513330D01*
X500000Y1038330D01*
X488330Y1045000D01*
X478330Y1055000D01*
X471670Y1066660D01*
X470000Y1080000D01*
X471670Y1093330D01*
X478330Y1105000D01*
X488330Y1115000D01*
X500000Y1121670D01*
X513330Y1125000D01*
X526670D01*
X540000Y1121670D01*
X551670Y1115000D01*
X561670Y1105000D01*
X568330Y1093330D01*
X570000Y1080000D01*
G01X543330Y1093330D02*
X570000Y1113330D01*
G01Y1200000D02*
X470000D01*
X490000Y1180000D01*
G01X570000D02*
Y1220000D01*
G01X528340Y1288330D02*
X516670Y1300000D01*
X510000Y1310000D01*
X506670Y1323330D01*
X510000Y1335000D01*
X516670Y1343330D01*
X526670Y1350000D01*
X538330Y1351670D01*
X548330Y1350000D01*
X558340Y1343330D01*
X566670Y1333330D01*
X570000Y1321670D01*
X566670Y1308330D01*
X556670Y1296670D01*
X541670Y1290000D01*
X525000Y1288330D01*
X503340Y1291670D01*
X491670Y1296670D01*
X480000Y1305000D01*
X471670Y1316670D01*
X470000Y1328330D01*
X473330Y1340000D01*
X481670Y1348330D01*
G01X448770Y382530D02*
X348770D01*
Y424190D01*
X353770Y437530D01*
X360440Y445860D01*
X373770Y449190D01*
X387100Y445860D01*
X395440Y435860D01*
X400440Y424190D01*
Y382530D01*
G01Y424190D02*
X448770Y449190D01*
G01Y535860D02*
X348770D01*
X368770Y515860D01*
G01X448770D02*
Y555860D01*
G01X348770Y655860D02*
X352100Y642520D01*
X360440Y632530D01*
X370440Y625860D01*
X383770Y620860D01*
X398770Y619190D01*
X413770Y620860D01*
X427100Y625860D01*
X437110Y632530D01*
X445440Y642520D01*
X448770Y655860D01*
X445440Y669190D01*
X437110Y679190D01*
X427100Y685860D01*
X413770Y690860D01*
X398770Y692530D01*
X383770Y690860D01*
X370440Y685860D01*
X360440Y679190D01*
X352100Y669190D01*
X348770Y655860D01*
G01X760000Y1220000D02*
X758330Y1206660D01*
X751670Y1195000D01*
X741670Y1185000D01*
X730000Y1178330D01*
X716670Y1175000D01*
X703330D01*
X690000Y1178330D01*
X678330Y1185000D01*
X668330Y1195000D01*
X661670Y1206660D01*
X660000Y1220000D01*
X661670Y1233330D01*
X668330Y1245000D01*
X678330Y1255000D01*
X690000Y1261670D01*
X703330Y1265000D01*
X716670D01*
X730000Y1261670D01*
X741670Y1255000D01*
X751670Y1245000D01*
X758330Y1233330D01*
X760000Y1220000D01*
G01X733330Y1233330D02*
X760000Y1253330D01*
G01Y1340000D02*
X660000D01*
X680000Y1320000D01*
G01X760000D02*
Y1360000D01*
G01X745000Y1423330D02*
X753330Y1433330D01*
X758330Y1445000D01*
X760000Y1460000D01*
X756670Y1475000D01*
X750000Y1486670D01*
X738330Y1495000D01*
X725000Y1496670D01*
X711670Y1493330D01*
X703330Y1485000D01*
X696670Y1473330D01*
X695000Y1461670D01*
X696670Y1450000D01*
X703330Y1435000D01*
X660000Y1440000D01*
Y1485000D01*
G01X460000Y1770000D02*
X458330Y1756660D01*
X451670Y1745000D01*
X441670Y1735000D01*
X430000Y1728330D01*
X416670Y1725000D01*
X403330D01*
X390000Y1728330D01*
X378330Y1735000D01*
X368330Y1745000D01*
X361670Y1756660D01*
X360000Y1770000D01*
X361670Y1783330D01*
X368330Y1795000D01*
X378330Y1805000D01*
X390000Y1811670D01*
X403330Y1815000D01*
X416670D01*
X430000Y1811670D01*
X441670Y1805000D01*
X451670Y1795000D01*
X458330Y1783330D01*
X460000Y1770000D01*
G01X433330Y1783330D02*
X460000Y1803330D01*
G01Y1890000D02*
X360000D01*
X380000Y1870000D01*
G01X460000D02*
Y1910000D01*
G01Y2006670D02*
X438330Y2010000D01*
X420000Y2015000D01*
X403330Y2021670D01*
X385000Y2030000D01*
X360000Y2043330D01*
Y1976670D01*
G01X798770Y1682530D02*
X698770D01*
Y1724190D01*
X703770Y1737530D01*
X710440Y1745860D01*
X723770Y1749190D01*
X737100Y1745860D01*
X745440Y1735860D01*
X750440Y1724190D01*
Y1682530D01*
G01Y1724190D02*
X798770Y1749190D01*
G01Y1835860D02*
X698770D01*
X718770Y1815860D01*
G01X798770D02*
Y1855860D01*
G01Y1955860D02*
X698770D01*
X718770Y1935860D01*
G01X798770D02*
Y1975860D01*
G01X1160000Y2570000D02*
X1060000D01*
X1131670Y2508330D01*
Y2591670D01*
G01X1140000Y2633330D02*
X1151670Y2643330D01*
X1158330Y2656660D01*
X1160000Y2671670D01*
X1158330Y2685000D01*
X1150000Y2698330D01*
X1140000Y2706670D01*
X1130000Y2708330D01*
X1118340Y2705000D01*
X1110000Y2693330D01*
X1106670Y2681670D01*
Y2666670D01*
G01Y2681670D02*
X1101670Y2691670D01*
X1093340Y2700000D01*
X1083330Y2703330D01*
X1073330Y2700000D01*
X1065000Y2691670D01*
X1060000Y2676670D01*
X1061670Y2661670D01*
X1068330Y2646670D01*
G01X1160000Y2810000D02*
X1060000D01*
X1131670Y2748330D01*
Y2831670D01*
G01X1068330Y2946670D02*
X1063330Y2936670D01*
X1060000Y2925000D01*
Y2911670D01*
X1065000Y2896660D01*
X1073330Y2885000D01*
X1083330Y2876670D01*
X1100000Y2870000D01*
X1115000Y2868330D01*
X1130000Y2871670D01*
X1140000Y2876670D01*
X1150000Y2886670D01*
X1156670Y2898330D01*
X1160000Y2910000D01*
Y2921670D01*
X1156670Y2933330D01*
X1151670Y2943330D01*
X1145000Y2951670D01*
G01X766670Y2278330D02*
X756670Y2288330D01*
X751670Y2300000D01*
X750000Y2313330D01*
X753330Y2330000D01*
X761670Y2341670D01*
X771670Y2345000D01*
X781670Y2343330D01*
X790000Y2336670D01*
X806670Y2303330D01*
X818330Y2288330D01*
X835000Y2278330D01*
X850000Y2275000D01*
Y2345000D01*
G01Y2450000D02*
X750000D01*
X821670Y2388330D01*
Y2471670D01*
G01X816670Y2528330D02*
Y2571670D01*
G01X766670Y2638330D02*
X756670Y2648330D01*
X751670Y2660000D01*
X750000Y2673330D01*
X753330Y2690000D01*
X761670Y2701670D01*
X771670Y2705000D01*
X781670Y2703330D01*
X790000Y2696670D01*
X806670Y2663330D01*
X818330Y2648330D01*
X835000Y2638330D01*
X850000Y2635000D01*
Y2705000D01*
G01X835000Y2753330D02*
X843330Y2763330D01*
X848330Y2775000D01*
X850000Y2790000D01*
X846670Y2805000D01*
X840000Y2816670D01*
X828330Y2825000D01*
X815000Y2826670D01*
X801670Y2823330D01*
X793330Y2815000D01*
X786670Y2803330D01*
X785000Y2791670D01*
X786670Y2780000D01*
X793330Y2765000D01*
X750000Y2770000D01*
Y2815000D01*
G01X640000Y2250000D02*
X638330Y2236660D01*
X631670Y2225000D01*
X621670Y2215000D01*
X610000Y2208330D01*
X596670Y2205000D01*
X583330D01*
X570000Y2208330D01*
X558330Y2215000D01*
X548330Y2225000D01*
X541670Y2236660D01*
X540000Y2250000D01*
X541670Y2263330D01*
X548330Y2275000D01*
X558330Y2285000D01*
X570000Y2291670D01*
X583330Y2295000D01*
X596670D01*
X610000Y2291670D01*
X621670Y2285000D01*
X631670Y2275000D01*
X638330Y2263330D01*
X640000Y2250000D01*
G01X613330Y2263330D02*
X640000Y2283330D01*
G01Y2370000D02*
X540000D01*
X560000Y2350000D01*
G01X640000D02*
Y2390000D01*
G01Y2490000D02*
X638330Y2501670D01*
X633330Y2515000D01*
X625000Y2523330D01*
X613330Y2526670D01*
X601670Y2523330D01*
X591670Y2513330D01*
X586670Y2498330D01*
Y2481670D01*
X583330Y2471670D01*
X575000Y2463330D01*
X563330Y2460000D01*
X551670Y2465000D01*
X543330Y2476660D01*
X540000Y2490000D01*
X543330Y2503330D01*
X551670Y2515000D01*
X563330Y2520000D01*
X575000Y2516670D01*
X583330Y2508330D01*
X586670Y2498330D01*
Y2481670D01*
X591670Y2466670D01*
X601670Y2456670D01*
X613330Y2453330D01*
X625000Y2456670D01*
X633330Y2465000D01*
X638330Y2478330D01*
X640000Y2490000D01*
G01X600000Y3393330D02*
X500000D01*
Y3426670D01*
X505000Y3440000D01*
X511670Y3450000D01*
X521670Y3458330D01*
X533340Y3465000D01*
X550000Y3466670D01*
X566670Y3465000D01*
X578330Y3458330D01*
X588340Y3450000D01*
X595000Y3440000D01*
X600000Y3426670D01*
Y3393330D01*
G01Y3550000D02*
X500000D01*
X520000Y3530000D01*
G01X600000D02*
Y3570000D01*
G01X747900Y3052680D02*
X746230Y3039340D01*
X739570Y3027680D01*
X729570Y3017680D01*
X717900Y3011010D01*
X704570Y3007680D01*
X691230D01*
X677900Y3011010D01*
X666230Y3017680D01*
X656230Y3027680D01*
X649570Y3039340D01*
X647900Y3052680D01*
X649570Y3066010D01*
X656230Y3077680D01*
X666230Y3087680D01*
X677900Y3094350D01*
X691230Y3097680D01*
X704570D01*
X717900Y3094350D01*
X729570Y3087680D01*
X739570Y3077680D01*
X746230Y3066010D01*
X747900Y3052680D01*
G01X721230Y3066010D02*
X747900Y3086010D01*
G01X706240Y3141010D02*
X694570Y3152680D01*
X687900Y3162680D01*
X684570Y3176010D01*
X687900Y3187680D01*
X694570Y3196010D01*
X704570Y3202680D01*
X716230Y3204350D01*
X726230Y3202680D01*
X736240Y3196010D01*
X744570Y3186010D01*
X747900Y3174350D01*
X744570Y3161010D01*
X734570Y3149350D01*
X719570Y3142680D01*
X702900Y3141010D01*
X681240Y3144350D01*
X669570Y3149350D01*
X657900Y3157680D01*
X649570Y3169350D01*
X647900Y3181010D01*
X651230Y3192680D01*
X659570Y3201010D01*
G01X630000Y2700000D02*
X628330Y2686660D01*
X621670Y2675000D01*
X611670Y2665000D01*
X600000Y2658330D01*
X586670Y2655000D01*
X573330D01*
X560000Y2658330D01*
X548330Y2665000D01*
X538330Y2675000D01*
X531670Y2686660D01*
X530000Y2700000D01*
X531670Y2713330D01*
X538330Y2725000D01*
X548330Y2735000D01*
X560000Y2741670D01*
X573330Y2745000D01*
X586670D01*
X600000Y2741670D01*
X611670Y2735000D01*
X621670Y2725000D01*
X628330Y2713330D01*
X630000Y2700000D01*
G01X603330Y2713330D02*
X630000Y2733330D01*
G01Y2820000D02*
X530000D01*
X550000Y2800000D01*
G01X630000D02*
Y2840000D01*
G01X618340Y2911670D02*
X626670Y2923330D01*
X630000Y2936670D01*
X626670Y2950000D01*
X616670Y2961670D01*
X601670Y2970000D01*
X586670Y2973330D01*
X568330D01*
X553330Y2970000D01*
X540000Y2961670D01*
X533330Y2951670D01*
X530000Y2940000D01*
X533330Y2926660D01*
X540000Y2916670D01*
X550000Y2910000D01*
X563340Y2906670D01*
X575000Y2910000D01*
X586670Y2918330D01*
X593340Y2928330D01*
X595000Y2940000D01*
X591670Y2953330D01*
X583330Y2963330D01*
X568330Y2973330D01*
G01X600000Y3716670D02*
X610000Y3725000D01*
X616670Y3735000D01*
X620000Y3746670D01*
X616670Y3760000D01*
X610000Y3770000D01*
X600000Y3780000D01*
X586670Y3783330D01*
X520000D01*
G01X620000Y3870000D02*
X520000D01*
X540000Y3850000D01*
G01X620000D02*
Y3890000D01*
G01X1050000Y3496670D02*
X950000D01*
Y3538330D01*
X955000Y3551670D01*
X961670Y3560000D01*
X975000Y3563330D01*
X988330Y3560000D01*
X996670Y3550000D01*
X1001670Y3538330D01*
Y3496670D01*
G01Y3538330D02*
X1050000Y3563330D01*
G01X1030000Y3613330D02*
X1041670Y3623330D01*
X1048330Y3636660D01*
X1050000Y3651670D01*
X1048330Y3665000D01*
X1040000Y3678330D01*
X1030000Y3686670D01*
X1020000Y3688330D01*
X1008340Y3685000D01*
X1000000Y3673330D01*
X996670Y3661670D01*
Y3646670D01*
G01Y3661670D02*
X991670Y3671670D01*
X983340Y3680000D01*
X973330Y3683330D01*
X963330Y3680000D01*
X955000Y3671670D01*
X950000Y3656670D01*
X951670Y3641670D01*
X958330Y3626670D01*
G01X1318770Y312530D02*
X1218770D01*
Y354190D01*
X1223770Y367530D01*
X1230440Y375860D01*
X1243770Y379190D01*
X1257100Y375860D01*
X1265440Y365860D01*
X1270440Y354190D01*
Y312530D01*
G01Y354190D02*
X1318770Y379190D01*
G01Y465860D02*
X1317100Y477530D01*
X1312100Y490860D01*
X1303770Y499190D01*
X1292100Y502530D01*
X1280440Y499190D01*
X1270440Y489190D01*
X1265440Y474190D01*
Y457530D01*
X1262100Y447530D01*
X1253770Y439190D01*
X1242100Y435860D01*
X1230440Y440860D01*
X1222100Y452520D01*
X1218770Y465860D01*
X1222100Y479190D01*
X1230440Y490860D01*
X1242100Y495860D01*
X1253770Y492530D01*
X1262100Y484190D01*
X1265440Y474190D01*
Y457530D01*
X1270440Y442530D01*
X1280440Y432530D01*
X1292100Y429190D01*
X1303770Y432530D01*
X1312100Y440860D01*
X1317100Y454190D01*
X1318770Y465860D01*
G01X1798770Y272530D02*
X1698770D01*
Y314190D01*
X1703770Y327530D01*
X1710440Y335860D01*
X1723770Y339190D01*
X1737100Y335860D01*
X1745440Y325860D01*
X1750440Y314190D01*
Y272530D01*
G01Y314190D02*
X1798770Y339190D01*
G01Y425860D02*
X1698770D01*
X1718770Y405860D01*
G01X1798770D02*
Y445860D01*
G01X1715440Y514190D02*
X1705440Y524190D01*
X1700440Y535860D01*
X1698770Y549190D01*
X1702100Y565860D01*
X1710440Y577530D01*
X1720440Y580860D01*
X1730440Y579190D01*
X1738770Y572530D01*
X1755440Y539190D01*
X1767100Y524190D01*
X1783770Y514190D01*
X1798770Y510860D01*
Y580860D01*
G01X1150000Y700000D02*
X1136660Y701670D01*
X1125000Y708330D01*
X1115000Y718330D01*
X1108330Y730000D01*
X1105000Y743330D01*
Y756670D01*
X1108330Y770000D01*
X1115000Y781670D01*
X1125000Y791670D01*
X1136660Y798330D01*
X1150000Y800000D01*
X1163330Y798330D01*
X1175000Y791670D01*
X1185000Y781670D01*
X1191670Y770000D01*
X1195000Y756670D01*
Y743330D01*
X1191670Y730000D01*
X1185000Y718330D01*
X1175000Y708330D01*
X1163330Y701670D01*
X1150000Y700000D01*
G01X1163330Y726670D02*
X1183330Y700000D01*
G01X1270000D02*
Y800000D01*
X1250000Y780000D01*
G01Y700000D02*
X1290000D01*
G01X1410000D02*
Y800000D01*
X1348330Y728330D01*
X1431670D01*
G01X1838770Y922530D02*
X1738770D01*
Y964190D01*
X1743770Y977530D01*
X1750440Y985860D01*
X1763770Y989190D01*
X1777100Y985860D01*
X1785440Y975860D01*
X1790440Y964190D01*
Y922530D01*
G01Y964190D02*
X1838770Y989190D01*
G01Y1072530D02*
X1817100Y1075860D01*
X1798770Y1080860D01*
X1782100Y1087530D01*
X1763770Y1095860D01*
X1738770Y1109190D01*
Y1042530D01*
G01X1560000Y1630000D02*
X1558330Y1616660D01*
X1551670Y1605000D01*
X1541670Y1595000D01*
X1530000Y1588330D01*
X1516670Y1585000D01*
X1503330D01*
X1490000Y1588330D01*
X1478330Y1595000D01*
X1468330Y1605000D01*
X1461670Y1616660D01*
X1460000Y1630000D01*
X1461670Y1643330D01*
X1468330Y1655000D01*
X1478330Y1665000D01*
X1490000Y1671670D01*
X1503330Y1675000D01*
X1516670D01*
X1530000Y1671670D01*
X1541670Y1665000D01*
X1551670Y1655000D01*
X1558330Y1643330D01*
X1560000Y1630000D01*
G01X1533330Y1643330D02*
X1560000Y1663330D01*
G01X1476670Y1718330D02*
X1466670Y1728330D01*
X1461670Y1740000D01*
X1460000Y1753330D01*
X1463330Y1770000D01*
X1471670Y1781670D01*
X1481670Y1785000D01*
X1491670Y1783330D01*
X1500000Y1776670D01*
X1516670Y1743330D01*
X1528330Y1728330D01*
X1545000Y1718330D01*
X1560000Y1715000D01*
Y1785000D01*
G01X1478770Y1352530D02*
X1378770D01*
Y1394190D01*
X1383770Y1407530D01*
X1390440Y1415860D01*
X1403770Y1419190D01*
X1417100Y1415860D01*
X1425440Y1405860D01*
X1430440Y1394190D01*
Y1352530D01*
G01Y1394190D02*
X1478770Y1419190D01*
G01Y1505860D02*
X1378770D01*
X1398770Y1485860D01*
G01X1478770D02*
Y1525860D01*
G01X1280000Y2110000D02*
X1278330Y2096660D01*
X1271670Y2085000D01*
X1261670Y2075000D01*
X1250000Y2068330D01*
X1236670Y2065000D01*
X1223330D01*
X1210000Y2068330D01*
X1198330Y2075000D01*
X1188330Y2085000D01*
X1181670Y2096660D01*
X1180000Y2110000D01*
X1181670Y2123330D01*
X1188330Y2135000D01*
X1198330Y2145000D01*
X1210000Y2151670D01*
X1223330Y2155000D01*
X1236670D01*
X1250000Y2151670D01*
X1261670Y2145000D01*
X1271670Y2135000D01*
X1278330Y2123330D01*
X1280000Y2110000D01*
G01X1253330Y2123330D02*
X1280000Y2143330D01*
G01X1260000Y2193330D02*
X1271670Y2203330D01*
X1278330Y2216660D01*
X1280000Y2231670D01*
X1278330Y2245000D01*
X1270000Y2258330D01*
X1260000Y2266670D01*
X1250000Y2268330D01*
X1238340Y2265000D01*
X1230000Y2253330D01*
X1226670Y2241670D01*
Y2226670D01*
G01Y2241670D02*
X1221670Y2251670D01*
X1213340Y2260000D01*
X1203330Y2263330D01*
X1193330Y2260000D01*
X1185000Y2251670D01*
X1180000Y2236670D01*
X1181670Y2221670D01*
X1188330Y2206670D01*
G01X1830000Y2510000D02*
X1816660Y2511670D01*
X1805000Y2518330D01*
X1795000Y2528330D01*
X1788330Y2540000D01*
X1785000Y2553330D01*
Y2566670D01*
X1788330Y2580000D01*
X1795000Y2591670D01*
X1805000Y2601670D01*
X1816660Y2608330D01*
X1830000Y2610000D01*
X1843330Y2608330D01*
X1855000Y2601670D01*
X1865000Y2591670D01*
X1871670Y2580000D01*
X1875000Y2566670D01*
Y2553330D01*
X1871670Y2540000D01*
X1865000Y2528330D01*
X1855000Y2518330D01*
X1843330Y2511670D01*
X1830000Y2510000D01*
G01X1843330Y2536670D02*
X1863330Y2510000D01*
G01X1970000D02*
Y2610000D01*
X1908330Y2538330D01*
X1991670D01*
G01X1210000Y3276670D02*
X1110000D01*
Y3316670D01*
X1115000Y3330000D01*
X1126670Y3340000D01*
X1140000Y3343330D01*
X1153330Y3340000D01*
X1163330Y3331670D01*
X1168340Y3316670D01*
Y3276670D01*
G01X1210000Y3430000D02*
X1110000D01*
X1130000Y3410000D01*
G01X1210000D02*
Y3450000D01*
G01Y3513330D02*
X1110000D01*
Y3546670D01*
X1115000Y3560000D01*
X1121670Y3570000D01*
X1131670Y3578330D01*
X1143340Y3585000D01*
X1160000Y3586670D01*
X1176670Y3585000D01*
X1188330Y3578330D01*
X1198340Y3570000D01*
X1205000Y3560000D01*
X1210000Y3546670D01*
Y3513330D01*
G01X1118330Y3706670D02*
X1113330Y3696670D01*
X1110000Y3685000D01*
Y3671670D01*
X1115000Y3656660D01*
X1123330Y3645000D01*
X1133330Y3636670D01*
X1150000Y3630000D01*
X1165000Y3628330D01*
X1180000Y3631670D01*
X1190000Y3636670D01*
X1200000Y3646670D01*
X1206670Y3658330D01*
X1210000Y3670000D01*
Y3681670D01*
X1206670Y3693330D01*
X1201670Y3703330D01*
X1195000Y3711670D01*
G01X1210000Y3823330D02*
Y3756670D01*
X1110000D01*
Y3823330D01*
G01X1158330Y3796670D02*
Y3756670D01*
G01X1710000Y2710000D02*
X1708330Y2696660D01*
X1701670Y2685000D01*
X1691670Y2675000D01*
X1680000Y2668330D01*
X1666670Y2665000D01*
X1653330D01*
X1640000Y2668330D01*
X1628330Y2675000D01*
X1618330Y2685000D01*
X1611670Y2696660D01*
X1610000Y2710000D01*
X1611670Y2723330D01*
X1618330Y2735000D01*
X1628330Y2745000D01*
X1640000Y2751670D01*
X1653330Y2755000D01*
X1666670D01*
X1680000Y2751670D01*
X1691670Y2745000D01*
X1701670Y2735000D01*
X1708330Y2723330D01*
X1710000Y2710000D01*
G01X1683330Y2723330D02*
X1710000Y2743330D01*
G01X1695000Y2793330D02*
X1703330Y2803330D01*
X1708330Y2815000D01*
X1710000Y2830000D01*
X1706670Y2845000D01*
X1700000Y2856670D01*
X1688330Y2865000D01*
X1675000Y2866670D01*
X1661670Y2863330D01*
X1653330Y2855000D01*
X1646670Y2843330D01*
X1645000Y2831670D01*
X1646670Y2820000D01*
X1653330Y2805000D01*
X1610000Y2810000D01*
Y2855000D01*
G01X1608770Y3112530D02*
X1508770D01*
Y3154190D01*
X1513770Y3167530D01*
X1520440Y3175860D01*
X1533770Y3179190D01*
X1547100Y3175860D01*
X1555440Y3165860D01*
X1560440Y3154190D01*
Y3112530D01*
G01Y3154190D02*
X1608770Y3179190D01*
G01Y3285860D02*
X1508770D01*
X1580440Y3224190D01*
Y3307530D01*
G01X1608770Y3472530D02*
X1508770D01*
Y3514190D01*
X1513770Y3527530D01*
X1520440Y3535860D01*
X1533770Y3539190D01*
X1547100Y3535860D01*
X1555440Y3525860D01*
X1560440Y3514190D01*
Y3472530D01*
G01Y3514190D02*
X1608770Y3539190D01*
G01Y3625860D02*
X1508770D01*
X1528770Y3605860D01*
G01X1608770D02*
Y3645860D01*
G01Y3765860D02*
X1508770D01*
X1580440Y3704190D01*
Y3787530D01*
G01X2400000Y270000D02*
X2398330Y256660D01*
X2391670Y245000D01*
X2381670Y235000D01*
X2370000Y228330D01*
X2356670Y225000D01*
X2343330D01*
X2330000Y228330D01*
X2318330Y235000D01*
X2308330Y245000D01*
X2301670Y256660D01*
X2300000Y270000D01*
X2301670Y283330D01*
X2308330Y295000D01*
X2318330Y305000D01*
X2330000Y311670D01*
X2343330Y315000D01*
X2356670D01*
X2370000Y311670D01*
X2381670Y305000D01*
X2391670Y295000D01*
X2398330Y283330D01*
X2400000Y270000D01*
G01X2373330Y283330D02*
X2400000Y303330D01*
G01Y390000D02*
X2300000D01*
X2320000Y370000D01*
G01X2400000D02*
Y410000D01*
G01X2380000Y473330D02*
X2391670Y483330D01*
X2398330Y496660D01*
X2400000Y511670D01*
X2398330Y525000D01*
X2390000Y538330D01*
X2380000Y546670D01*
X2370000Y548330D01*
X2358340Y545000D01*
X2350000Y533330D01*
X2346670Y521670D01*
Y506670D01*
G01Y521670D02*
X2341670Y531670D01*
X2333340Y540000D01*
X2323330Y543330D01*
X2313330Y540000D01*
X2305000Y531670D01*
X2300000Y516670D01*
X2301670Y501670D01*
X2308330Y486670D01*
G01X1950000Y590000D02*
X1936660Y591670D01*
X1925000Y598330D01*
X1915000Y608330D01*
X1908330Y620000D01*
X1905000Y633330D01*
Y646670D01*
X1908330Y660000D01*
X1915000Y671670D01*
X1925000Y681670D01*
X1936660Y688330D01*
X1950000Y690000D01*
X1963330Y688330D01*
X1975000Y681670D01*
X1985000Y671670D01*
X1991670Y660000D01*
X1995000Y646670D01*
Y633330D01*
X1991670Y620000D01*
X1985000Y608330D01*
X1975000Y598330D01*
X1963330Y591670D01*
X1950000Y590000D01*
G01X1963330Y616670D02*
X1983330Y590000D01*
G01X2070000D02*
Y690000D01*
X2050000Y670000D01*
G01Y590000D02*
X2090000D01*
G01X2158330Y673330D02*
X2168330Y683330D01*
X2180000Y688330D01*
X2193330Y690000D01*
X2210000Y686670D01*
X2221670Y678330D01*
X2225000Y668330D01*
X2223330Y658330D01*
X2216670Y650000D01*
X2183330Y633330D01*
X2168330Y621670D01*
X2158330Y605000D01*
X2155000Y590000D01*
X2225000D01*
G01X2075000Y1788000D02*
X2073330Y1774660D01*
X2066670Y1763000D01*
X2056670Y1753000D01*
X2045000Y1746330D01*
X2031670Y1743000D01*
X2018330D01*
X2005000Y1746330D01*
X1993330Y1753000D01*
X1983330Y1763000D01*
X1976670Y1774660D01*
X1975000Y1788000D01*
X1976670Y1801330D01*
X1983330Y1813000D01*
X1993330Y1823000D01*
X2005000Y1829670D01*
X2018330Y1833000D01*
X2031670D01*
X2045000Y1829670D01*
X2056670Y1823000D01*
X2066670Y1813000D01*
X2073330Y1801330D01*
X2075000Y1788000D01*
G01X2048330Y1801330D02*
X2075000Y1821330D01*
G01Y1908000D02*
X1975000D01*
X1995000Y1888000D01*
G01X2075000D02*
Y1928000D01*
G01X2660000Y1590000D02*
X2658330Y1576660D01*
X2651670Y1565000D01*
X2641670Y1555000D01*
X2630000Y1548330D01*
X2616670Y1545000D01*
X2603330D01*
X2590000Y1548330D01*
X2578330Y1555000D01*
X2568330Y1565000D01*
X2561670Y1576660D01*
X2560000Y1590000D01*
X2561670Y1603330D01*
X2568330Y1615000D01*
X2578330Y1625000D01*
X2590000Y1631670D01*
X2603330Y1635000D01*
X2616670D01*
X2630000Y1631670D01*
X2641670Y1625000D01*
X2651670Y1615000D01*
X2658330Y1603330D01*
X2660000Y1590000D01*
G01X2633330Y1603330D02*
X2660000Y1623330D01*
G01X2648340Y1681670D02*
X2656670Y1693330D01*
X2660000Y1706670D01*
X2656670Y1720000D01*
X2646670Y1731670D01*
X2631670Y1740000D01*
X2616670Y1743330D01*
X2598330D01*
X2583330Y1740000D01*
X2570000Y1731670D01*
X2563330Y1721670D01*
X2560000Y1710000D01*
X2563330Y1696660D01*
X2570000Y1686670D01*
X2580000Y1680000D01*
X2593340Y1676670D01*
X2605000Y1680000D01*
X2616670Y1688330D01*
X2623340Y1698330D01*
X2625000Y1710000D01*
X2621670Y1723330D01*
X2613330Y1733330D01*
X2598330Y1743330D01*
G01X2138770Y1332530D02*
X2038770D01*
Y1374190D01*
X2043770Y1387530D01*
X2050440Y1395860D01*
X2063770Y1399190D01*
X2077100Y1395860D01*
X2085440Y1385860D01*
X2090440Y1374190D01*
Y1332530D01*
G01Y1374190D02*
X2138770Y1399190D01*
G01X2055440Y1454190D02*
X2045440Y1464190D01*
X2040440Y1475860D01*
X2038770Y1489190D01*
X2042100Y1505860D01*
X2050440Y1517530D01*
X2060440Y1520860D01*
X2070440Y1519190D01*
X2078770Y1512530D01*
X2095440Y1479190D01*
X2107100Y1464190D01*
X2123770Y1454190D01*
X2138770Y1450860D01*
Y1520860D01*
G01X2658770Y1282530D02*
X2558770D01*
Y1324190D01*
X2563770Y1337530D01*
X2570440Y1345860D01*
X2583770Y1349190D01*
X2597100Y1345860D01*
X2605440Y1335860D01*
X2610440Y1324190D01*
Y1282530D01*
G01Y1324190D02*
X2658770Y1349190D01*
G01X2617110Y1404190D02*
X2605440Y1415860D01*
X2598770Y1425860D01*
X2595440Y1439190D01*
X2598770Y1450860D01*
X2605440Y1459190D01*
X2615440Y1465860D01*
X2627100Y1467530D01*
X2637100Y1465860D01*
X2647110Y1459190D01*
X2655440Y1449190D01*
X2658770Y1437530D01*
X2655440Y1424190D01*
X2645440Y1412530D01*
X2630440Y1405860D01*
X2613770Y1404190D01*
X2592110Y1407530D01*
X2580440Y1412530D01*
X2568770Y1420860D01*
X2560440Y1432530D01*
X2558770Y1444190D01*
X2562100Y1455860D01*
X2570440Y1464190D01*
G01X2640000Y2390000D02*
X2626660Y2391670D01*
X2615000Y2398330D01*
X2605000Y2408330D01*
X2598330Y2420000D01*
X2595000Y2433330D01*
Y2446670D01*
X2598330Y2460000D01*
X2605000Y2471670D01*
X2615000Y2481670D01*
X2626660Y2488330D01*
X2640000Y2490000D01*
X2653330Y2488330D01*
X2665000Y2481670D01*
X2675000Y2471670D01*
X2681670Y2460000D01*
X2685000Y2446670D01*
Y2433330D01*
X2681670Y2420000D01*
X2675000Y2408330D01*
X2665000Y2398330D01*
X2653330Y2391670D01*
X2640000Y2390000D01*
G01X2653330Y2416670D02*
X2673330Y2390000D01*
G01X2756670D02*
X2760000Y2411670D01*
X2765000Y2430000D01*
X2771670Y2446670D01*
X2780000Y2465000D01*
X2793330Y2490000D01*
X2726670D01*
G01X2510000Y2110000D02*
X2508330Y2096660D01*
X2501670Y2085000D01*
X2491670Y2075000D01*
X2480000Y2068330D01*
X2466670Y2065000D01*
X2453330D01*
X2440000Y2068330D01*
X2428330Y2075000D01*
X2418330Y2085000D01*
X2411670Y2096660D01*
X2410000Y2110000D01*
X2411670Y2123330D01*
X2418330Y2135000D01*
X2428330Y2145000D01*
X2440000Y2151670D01*
X2453330Y2155000D01*
X2466670D01*
X2480000Y2151670D01*
X2491670Y2145000D01*
X2501670Y2135000D01*
X2508330Y2123330D01*
X2510000Y2110000D01*
G01X2483330Y2123330D02*
X2510000Y2143330D01*
G01Y2230000D02*
X2508330Y2241670D01*
X2503330Y2255000D01*
X2495000Y2263330D01*
X2483330Y2266670D01*
X2471670Y2263330D01*
X2461670Y2253330D01*
X2456670Y2238330D01*
Y2221670D01*
X2453330Y2211670D01*
X2445000Y2203330D01*
X2433330Y2200000D01*
X2421670Y2205000D01*
X2413330Y2216660D01*
X2410000Y2230000D01*
X2413330Y2243330D01*
X2421670Y2255000D01*
X2433330Y2260000D01*
X2445000Y2256670D01*
X2453330Y2248330D01*
X2456670Y2238330D01*
Y2221670D01*
X2461670Y2206670D01*
X2471670Y2196670D01*
X2483330Y2193330D01*
X2495000Y2196670D01*
X2503330Y2205000D01*
X2508330Y2218330D01*
X2510000Y2230000D01*
G01X2628770Y2882530D02*
X2528770D01*
Y2924190D01*
X2533770Y2937530D01*
X2540440Y2945860D01*
X2553770Y2949190D01*
X2567100Y2945860D01*
X2575440Y2935860D01*
X2580440Y2924190D01*
Y2882530D01*
G01Y2924190D02*
X2628770Y2949190D01*
G01X2613770Y2999190D02*
X2622100Y3009190D01*
X2627100Y3020860D01*
X2628770Y3035860D01*
X2625440Y3050860D01*
X2618770Y3062530D01*
X2607100Y3070860D01*
X2593770Y3072530D01*
X2580440Y3069190D01*
X2572100Y3060860D01*
X2565440Y3049190D01*
X2563770Y3037530D01*
X2565440Y3025860D01*
X2572100Y3010860D01*
X2528770Y3015860D01*
Y3060860D01*
G01X2628770Y3352530D02*
X2528770D01*
Y3394190D01*
X2533770Y3407530D01*
X2540440Y3415860D01*
X2553770Y3419190D01*
X2567100Y3415860D01*
X2575440Y3405860D01*
X2580440Y3394190D01*
Y3352530D01*
G01Y3394190D02*
X2628770Y3419190D01*
G01Y3505860D02*
X2528770D01*
X2548770Y3485860D01*
G01X2628770D02*
Y3525860D01*
G01X2608770Y3589190D02*
X2620440Y3599190D01*
X2627100Y3612520D01*
X2628770Y3627530D01*
X2627100Y3640860D01*
X2618770Y3654190D01*
X2608770Y3662530D01*
X2598770Y3664190D01*
X2587110Y3660860D01*
X2578770Y3649190D01*
X2575440Y3637530D01*
Y3622530D01*
G01Y3637530D02*
X2570440Y3647530D01*
X2562110Y3655860D01*
X2552100Y3659190D01*
X2542100Y3655860D01*
X2533770Y3647530D01*
X2528770Y3632530D01*
X2530440Y3617530D01*
X2537100Y3602530D01*
G01X2078770Y3392530D02*
X1978770D01*
Y3434190D01*
X1983770Y3447530D01*
X1990440Y3455860D01*
X2003770Y3459190D01*
X2017100Y3455860D01*
X2025440Y3445860D01*
X2030440Y3434190D01*
Y3392530D01*
G01Y3434190D02*
X2078770Y3459190D01*
G01Y3545860D02*
X1978770D01*
X1998770Y3525860D01*
G01X2078770D02*
Y3565860D01*
G01X2063770Y3629190D02*
X2072100Y3639190D01*
X2077100Y3650860D01*
X2078770Y3665860D01*
X2075440Y3680860D01*
X2068770Y3692530D01*
X2057100Y3700860D01*
X2043770Y3702530D01*
X2030440Y3699190D01*
X2022100Y3690860D01*
X2015440Y3679190D01*
X2013770Y3667530D01*
X2015440Y3655860D01*
X2022100Y3640860D01*
X1978770Y3645860D01*
Y3690860D01*
G01X2088770Y2872530D02*
X1988770D01*
Y2914190D01*
X1993770Y2927530D01*
X2000440Y2935860D01*
X2013770Y2939190D01*
X2027100Y2935860D01*
X2035440Y2925860D01*
X2040440Y2914190D01*
Y2872530D01*
G01Y2914190D02*
X2088770Y2939190D01*
G01Y3025860D02*
X1988770D01*
X2008770Y3005860D01*
G01X2088770D02*
Y3045860D01*
G01X2047110Y3114190D02*
X2035440Y3125860D01*
X2028770Y3135860D01*
X2025440Y3149190D01*
X2028770Y3160860D01*
X2035440Y3169190D01*
X2045440Y3175860D01*
X2057100Y3177530D01*
X2067100Y3175860D01*
X2077110Y3169190D01*
X2085440Y3159190D01*
X2088770Y3147530D01*
X2085440Y3134190D01*
X2075440Y3122530D01*
X2060440Y3115860D01*
X2043770Y3114190D01*
X2022110Y3117530D01*
X2010440Y3122530D01*
X1998770Y3130860D01*
X1990440Y3142530D01*
X1988770Y3154190D01*
X1992100Y3165860D01*
X2000440Y3174190D01*
G01X3119560Y290810D02*
X3114560Y280810D01*
X3111230Y269140D01*
Y255810D01*
X3116230Y240800D01*
X3124560Y229140D01*
X3134560Y220810D01*
X3151230Y214140D01*
X3166230Y212470D01*
X3181230Y215810D01*
X3191230Y220810D01*
X3201230Y230810D01*
X3207900Y242470D01*
X3211230Y254140D01*
Y265810D01*
X3207900Y277470D01*
X3202900Y287470D01*
X3196230Y295810D01*
G01Y337470D02*
X3204560Y347470D01*
X3209560Y359140D01*
X3211230Y374140D01*
X3207900Y389140D01*
X3201230Y400810D01*
X3189560Y409140D01*
X3176230Y410810D01*
X3162900Y407470D01*
X3154560Y399140D01*
X3147900Y387470D01*
X3146230Y375810D01*
X3147900Y364140D01*
X3154560Y349140D01*
X3111230Y354140D01*
Y399140D01*
G01X2758770Y272530D02*
X2658770D01*
Y314190D01*
X2663770Y327530D01*
X2670440Y335860D01*
X2683770Y339190D01*
X2697100Y335860D01*
X2705440Y325860D01*
X2710440Y314190D01*
Y272530D01*
G01Y314190D02*
X2758770Y339190D01*
G01Y425860D02*
X2658770D01*
X2678770Y405860D01*
G01X2758770D02*
Y445860D01*
G01X2747110Y517530D02*
X2755440Y529190D01*
X2758770Y542530D01*
X2755440Y555860D01*
X2745440Y567530D01*
X2730440Y575860D01*
X2715440Y579190D01*
X2697100D01*
X2682100Y575860D01*
X2668770Y567530D01*
X2662100Y557530D01*
X2658770Y545860D01*
X2662100Y532520D01*
X2668770Y522530D01*
X2678770Y515860D01*
X2692110Y512530D01*
X2703770Y515860D01*
X2715440Y524190D01*
X2722110Y534190D01*
X2723770Y545860D01*
X2720440Y559190D01*
X2712100Y569190D01*
X2697100Y579190D01*
G01X3450000Y866670D02*
X3460000Y875000D01*
X3466670Y885000D01*
X3470000Y896670D01*
X3466670Y910000D01*
X3460000Y920000D01*
X3450000Y930000D01*
X3436670Y933330D01*
X3370000D01*
G01X3450000Y983330D02*
X3461670Y993330D01*
X3468330Y1006660D01*
X3470000Y1021670D01*
X3468330Y1035000D01*
X3460000Y1048330D01*
X3450000Y1056670D01*
X3440000Y1058330D01*
X3428340Y1055000D01*
X3420000Y1043330D01*
X3416670Y1031670D01*
Y1016670D01*
G01Y1031670D02*
X3411670Y1041670D01*
X3403340Y1050000D01*
X3393330Y1053330D01*
X3383330Y1050000D01*
X3375000Y1041670D01*
X3370000Y1026670D01*
X3371670Y1011670D01*
X3378330Y996670D01*
G01X2716670Y650000D02*
Y750000D01*
X2758330D01*
X2771670Y745000D01*
X2780000Y738330D01*
X2783330Y725000D01*
X2780000Y711670D01*
X2770000Y703330D01*
X2758330Y698330D01*
X2716670D01*
G01X2758330D02*
X2783330Y650000D01*
G01X2870000D02*
Y750000D01*
X2850000Y730000D01*
G01Y650000D02*
X2890000D01*
G01X2990000D02*
X3001670Y651670D01*
X3015000Y656670D01*
X3023330Y665000D01*
X3026670Y676670D01*
X3023330Y688330D01*
X3013330Y698330D01*
X2998330Y703330D01*
X2981670D01*
X2971670Y706670D01*
X2963330Y715000D01*
X2960000Y726670D01*
X2965000Y738330D01*
X2976660Y746670D01*
X2990000Y750000D01*
X3003330Y746670D01*
X3015000Y738330D01*
X3020000Y726670D01*
X3016670Y715000D01*
X3008330Y706670D01*
X2998330Y703330D01*
X2981670D01*
X2966670Y698330D01*
X2956670Y688330D01*
X2953330Y676670D01*
X2956670Y665000D01*
X2965000Y656670D01*
X2978330Y651670D01*
X2990000Y650000D01*
G01X3050000Y806670D02*
X2950000D01*
Y848330D01*
X2955000Y861670D01*
X2961670Y870000D01*
X2975000Y873330D01*
X2988330Y870000D01*
X2996670Y860000D01*
X3001670Y848330D01*
Y806670D01*
G01Y848330D02*
X3050000Y873330D01*
G01X2966670Y928330D02*
X2956670Y938330D01*
X2951670Y950000D01*
X2950000Y963330D01*
X2953330Y980000D01*
X2961670Y991670D01*
X2971670Y995000D01*
X2981670Y993330D01*
X2990000Y986670D01*
X3006670Y953330D01*
X3018330Y938330D01*
X3035000Y928330D01*
X3050000Y925000D01*
Y995000D01*
G01X2950000Y1080000D02*
X2953330Y1066660D01*
X2961670Y1056670D01*
X2971670Y1050000D01*
X2985000Y1045000D01*
X3000000Y1043330D01*
X3015000Y1045000D01*
X3028330Y1050000D01*
X3038340Y1056670D01*
X3046670Y1066660D01*
X3050000Y1080000D01*
X3046670Y1093330D01*
X3038340Y1103330D01*
X3028330Y1110000D01*
X3015000Y1115000D01*
X3000000Y1116670D01*
X2985000Y1115000D01*
X2971670Y1110000D01*
X2961670Y1103330D01*
X2953330Y1093330D01*
X2950000Y1080000D01*
G01X3440000Y1610000D02*
X3438330Y1596660D01*
X3431670Y1585000D01*
X3421670Y1575000D01*
X3410000Y1568330D01*
X3396670Y1565000D01*
X3383330D01*
X3370000Y1568330D01*
X3358330Y1575000D01*
X3348330Y1585000D01*
X3341670Y1596660D01*
X3340000Y1610000D01*
X3341670Y1623330D01*
X3348330Y1635000D01*
X3358330Y1645000D01*
X3370000Y1651670D01*
X3383330Y1655000D01*
X3396670D01*
X3410000Y1651670D01*
X3421670Y1645000D01*
X3431670Y1635000D01*
X3438330Y1623330D01*
X3440000Y1610000D01*
G01X3413330Y1623330D02*
X3440000Y1643330D01*
G01Y1730000D02*
X3340000D01*
X3360000Y1710000D01*
G01X3440000D02*
Y1750000D01*
G01X3340000Y1850000D02*
X3343330Y1836660D01*
X3351670Y1826670D01*
X3361670Y1820000D01*
X3375000Y1815000D01*
X3390000Y1813330D01*
X3405000Y1815000D01*
X3418330Y1820000D01*
X3428340Y1826670D01*
X3436670Y1836660D01*
X3440000Y1850000D01*
X3436670Y1863330D01*
X3428340Y1873330D01*
X3418330Y1880000D01*
X3405000Y1885000D01*
X3390000Y1886670D01*
X3375000Y1885000D01*
X3361670Y1880000D01*
X3351670Y1873330D01*
X3343330Y1863330D01*
X3340000Y1850000D01*
G01X3090000Y1520000D02*
X3088330Y1506660D01*
X3081670Y1495000D01*
X3071670Y1485000D01*
X3060000Y1478330D01*
X3046670Y1475000D01*
X3033330D01*
X3020000Y1478330D01*
X3008330Y1485000D01*
X2998330Y1495000D01*
X2991670Y1506660D01*
X2990000Y1520000D01*
X2991670Y1533330D01*
X2998330Y1545000D01*
X3008330Y1555000D01*
X3020000Y1561670D01*
X3033330Y1565000D01*
X3046670D01*
X3060000Y1561670D01*
X3071670Y1555000D01*
X3081670Y1545000D01*
X3088330Y1533330D01*
X3090000Y1520000D01*
G01X3063330Y1533330D02*
X3090000Y1553330D01*
G01Y1640000D02*
X2990000D01*
X3010000Y1620000D01*
G01X3090000D02*
Y1660000D01*
G01Y1760000D02*
X2990000D01*
X3010000Y1740000D01*
G01X3090000D02*
Y1780000D01*
G01X2796670Y2101670D02*
X2786670Y2106670D01*
X2775000Y2110000D01*
X2761670D01*
X2746660Y2105000D01*
X2735000Y2096670D01*
X2726670Y2086670D01*
X2720000Y2070000D01*
X2718330Y2055000D01*
X2721670Y2040000D01*
X2726670Y2030000D01*
X2736670Y2020000D01*
X2748330Y2013330D01*
X2760000Y2010000D01*
X2771670D01*
X2783330Y2013330D01*
X2793330Y2018330D01*
X2801670Y2025000D01*
G01X2880000Y2010000D02*
Y2110000D01*
X2860000Y2090000D01*
G01Y2010000D02*
X2900000D01*
G01X2826670Y2520000D02*
Y2620000D01*
X2868330D01*
X2881670Y2615000D01*
X2890000Y2608330D01*
X2893330Y2595000D01*
X2890000Y2581670D01*
X2880000Y2573330D01*
X2868330Y2568330D01*
X2826670D01*
G01X2868330D02*
X2893330Y2520000D01*
G01X2980000D02*
Y2620000D01*
X2960000Y2600000D01*
G01Y2520000D02*
X3000000D01*
G01X3096670D02*
X3100000Y2541670D01*
X3105000Y2560000D01*
X3111670Y2576670D01*
X3120000Y2595000D01*
X3133330Y2620000D01*
X3066670D01*
G01X3202470Y3005440D02*
X3197470Y2995440D01*
X3194140Y2983770D01*
Y2970440D01*
X3199140Y2955430D01*
X3207470Y2943770D01*
X3217470Y2935440D01*
X3234140Y2928770D01*
X3249140Y2927100D01*
X3264140Y2930440D01*
X3274140Y2935440D01*
X3284140Y2945440D01*
X3290810Y2957100D01*
X3294140Y2968770D01*
Y2980440D01*
X3290810Y2992100D01*
X3285810Y3002100D01*
X3279140Y3010440D01*
G01X3274140Y3052100D02*
X3285810Y3062100D01*
X3292470Y3075430D01*
X3294140Y3090440D01*
X3292470Y3103770D01*
X3284140Y3117100D01*
X3274140Y3125440D01*
X3264140Y3127100D01*
X3252480Y3123770D01*
X3244140Y3112100D01*
X3240810Y3100440D01*
Y3085440D01*
G01Y3100440D02*
X3235810Y3110440D01*
X3227480Y3118770D01*
X3217470Y3122100D01*
X3207470Y3118770D01*
X3199140Y3110440D01*
X3194140Y3095440D01*
X3195810Y3080440D01*
X3202470Y3065440D01*
G01X2946670Y3661670D02*
X2936670Y3666670D01*
X2925000Y3670000D01*
X2911670D01*
X2896660Y3665000D01*
X2885000Y3656670D01*
X2876670Y3646670D01*
X2870000Y3630000D01*
X2868330Y3615000D01*
X2871670Y3600000D01*
X2876670Y3590000D01*
X2886670Y3580000D01*
X2898330Y3573330D01*
X2910000Y3570000D01*
X2921670D01*
X2933330Y3573330D01*
X2943330Y3578330D01*
X2951670Y3585000D01*
G01X2998330Y3653330D02*
X3008330Y3663330D01*
X3020000Y3668330D01*
X3033330Y3670000D01*
X3050000Y3666670D01*
X3061670Y3658330D01*
X3065000Y3648330D01*
X3063330Y3638330D01*
X3056670Y3630000D01*
X3023330Y3613330D01*
X3008330Y3601670D01*
X2998330Y3585000D01*
X2995000Y3570000D01*
X3065000D01*
G01X3435980Y3542720D02*
X3445980Y3551050D01*
X3452650Y3561050D01*
X3455980Y3572720D01*
X3452650Y3586050D01*
X3445980Y3596050D01*
X3435980Y3606050D01*
X3422650Y3609380D01*
X3355980D01*
G01X3372650Y3664380D02*
X3362650Y3674380D01*
X3357650Y3686050D01*
X3355980Y3699380D01*
X3359310Y3716050D01*
X3367650Y3727720D01*
X3377650Y3731050D01*
X3387650Y3729380D01*
X3395980Y3722720D01*
X3412650Y3689380D01*
X3424310Y3674380D01*
X3440980Y3664380D01*
X3455980Y3661050D01*
Y3731050D01*
G01X3586670Y1561670D02*
X3576670Y1566670D01*
X3565000Y1570000D01*
X3551670D01*
X3536660Y1565000D01*
X3525000Y1556670D01*
X3516670Y1546670D01*
X3510000Y1530000D01*
X3508330Y1515000D01*
X3511670Y1500000D01*
X3516670Y1490000D01*
X3526670Y1480000D01*
X3538330Y1473330D01*
X3550000Y1470000D01*
X3561670D01*
X3573330Y1473330D01*
X3583330Y1478330D01*
X3591670Y1485000D01*
G01X3690000Y1470000D02*
Y1570000D01*
X3628330Y1498330D01*
X3711670D01*
G01X3670000Y1773330D02*
X3570000D01*
Y1806670D01*
X3575000Y1820000D01*
X3581670Y1830000D01*
X3591670Y1838330D01*
X3603340Y1845000D01*
X3620000Y1846670D01*
X3636670Y1845000D01*
X3648330Y1838330D01*
X3658340Y1830000D01*
X3665000Y1820000D01*
X3670000Y1806670D01*
Y1773330D01*
G01X3655000Y1893330D02*
X3663330Y1903330D01*
X3668330Y1915000D01*
X3670000Y1930000D01*
X3666670Y1945000D01*
X3660000Y1956670D01*
X3648330Y1965000D01*
X3635000Y1966670D01*
X3621670Y1963330D01*
X3613330Y1955000D01*
X3606670Y1943330D01*
X3605000Y1931670D01*
X3606670Y1920000D01*
X3613330Y1905000D01*
X3570000Y1910000D01*
Y1955000D01*
G01X3573330Y2390000D02*
Y2490000D01*
X3606670D01*
X3620000Y2485000D01*
X3630000Y2478330D01*
X3638330Y2468330D01*
X3645000Y2456660D01*
X3646670Y2440000D01*
X3645000Y2423330D01*
X3638330Y2411670D01*
X3630000Y2401660D01*
X3620000Y2395000D01*
X3606670Y2390000D01*
X3573330D01*
G01X3750000D02*
Y2490000D01*
X3688330Y2418330D01*
X3771670D01*
G54D11*
G01X174990Y3237000D02*
Y3305000D01*
X258510D01*
G01X381490D02*
X465010D01*
Y3237000D01*
G54D12*
G01X325250Y689880D02*
Y283480D01*
G01D02*
X134750D01*
G01D02*
Y689880D01*
G01D02*
X325250D01*
G01X1205250Y203480D02*
X1014750D01*
G01D02*
Y609880D01*
G01X825250Y689880D02*
Y283480D01*
G01D02*
X634750D01*
G01D02*
Y689880D01*
G01X1014750Y609880D02*
X1205250D01*
G01X634750Y689880D02*
X825250D01*
G01X675250Y2029880D02*
Y1623480D01*
G01D02*
X484750D01*
G01D02*
Y2029880D01*
G01D02*
X675250D01*
G01X925250Y3769880D02*
Y3363480D01*
G01D02*
X734750D01*
G01D02*
Y3769880D01*
G01D02*
X925250D01*
G01X1205250Y609880D02*
Y203480D01*
G01X1665250Y609880D02*
Y203480D01*
G01D02*
X1474750D01*
G01D02*
Y609880D01*
G01X1715250Y1159880D02*
Y753480D01*
G01D02*
X1524750D01*
G01D02*
Y1159880D01*
G01X1474750Y609880D02*
X1665250D01*
G01X1345250Y1619880D02*
Y1213480D01*
G01D02*
X1154750D01*
G01D02*
Y1619880D01*
G01D02*
X1345250D01*
G01X2015250Y1253480D02*
X1824750D01*
G01D02*
Y1659880D01*
G01D02*
X2015250D01*
G01X1524750Y1159880D02*
X1715250D01*
G01X1485250Y3379880D02*
Y2973480D01*
G01D02*
X1294750D01*
G01D02*
Y3379880D01*
G01D02*
X1485250D01*
G01X1965250Y2823480D02*
X1774750D01*
G01D02*
Y3229880D01*
G01D02*
X1965250D01*
G01X1485250Y3859880D02*
Y3453480D01*
G01D02*
X1294750D01*
G01D02*
Y3859880D01*
G01D02*
X1485250D01*
G01X1955250Y3403480D02*
X1764750D01*
G01D02*
Y3809880D01*
G01D02*
X1955250D01*
G01X2645250Y253480D02*
X2454750D01*
G01D02*
Y659880D01*
G01X2939880Y764750D02*
X2533480D01*
G01D02*
Y955250D01*
G01D02*
X2939880D01*
G01X2454750Y659880D02*
X2645250D01*
G01X2015250Y1659880D02*
Y1253480D01*
G01X2535250Y1609880D02*
Y1203480D01*
G01D02*
X2344750D01*
G01D02*
Y1609880D01*
G01D02*
X2535250D01*
G01X2989880Y2124750D02*
X2583480D01*
G01D02*
Y2315250D01*
G01D02*
X2989880D01*
G01X2505250Y3209880D02*
Y2803480D01*
G01D02*
X2314750D01*
G01D02*
Y3209880D01*
G01D02*
X2505250D01*
G01Y3699880D02*
Y3293480D01*
G01D02*
X2314750D01*
G01D02*
Y3699880D01*
G01X1965250Y3229880D02*
Y2823480D01*
G01X2314750Y3699880D02*
X2505250D01*
G01X1955250Y3809880D02*
Y3403480D01*
G01X2894750Y170120D02*
Y576520D01*
G01X3085250D02*
Y170120D01*
G01D02*
X2894750D01*
G01X2645250Y659880D02*
Y253480D01*
G01X2894750Y576520D02*
X3085250D01*
G01X2939880Y955250D02*
Y764750D01*
G01X3265250Y1059880D02*
Y653480D01*
G01D02*
X3074750D01*
G01D02*
Y1059880D01*
G01D02*
X3265250D01*
G01X2989880Y2315250D02*
Y2124750D01*
G01X3166520Y3545250D02*
Y3354750D01*
G01D02*
X2760120D01*
G01D02*
Y3545250D01*
G01Y3125250D02*
X3166520D01*
G01D02*
Y2934750D01*
G01D02*
X2760120D01*
G01D02*
Y3125250D01*
G01X3169880Y2654750D02*
X2763480D01*
G01D02*
Y2845250D01*
G01D02*
X3169880D01*
G01D02*
Y2654750D01*
G01X2760120Y3545250D02*
X3166520D01*
G01X3499500Y312130D02*
X3880500D01*
G01D02*
Y1188430D01*
G01X3499500D02*
Y312130D01*
G01X3380120Y1445250D02*
X3786520D01*
G01D02*
Y1254750D01*
G01D02*
X3380120D01*
G01D02*
Y1445250D01*
G01X3880500Y1188430D02*
X3499500D01*
G01X3489500Y2992130D02*
X3870500D01*
G01D02*
Y3868430D01*
G01X3489500D02*
Y2992130D01*
G01X3870500Y3868430D02*
X3489500D01*
G54D13*
G01X232490Y3015000D02*
G03I-9990J0D01*
M02*
