<svg fill="#183884" id="Component_318_1" data-name="Component 318 – 1" xmlns="http://www.w3.org/2000/svg" viewBox="0 0 242.413 218.696">
    <g id="Group_3485" data-name="Group 3485">
        <path id="Path_28856" data-name="Path 28856" d="M82.4,73.951H6.7V6.72H82.4Zm79.469,3.977v67.183h-75.6V77.928h75.6m79.563-3.977h-75.7V6.72h75.7Zm3.82,3.977V2.743H161.865V42.084l-37.87,33.831-2.169-1.964h-.048L86.264,42.084V2.743H2.835V77.928h45.6l-1.651.048L82.4,109.843v39.293h83.335V109.843l35.61-31.915h43.908Z" transform="translate(-2.835 -2.743)" fill="183884" fill-rule="evenodd"/>
        <path id="Path_28857" data-name="Path 28857" d="M114.632,11.848a2.738,2.738,0,0,1,1.274-1.442,5.434,5.434,0,0,1,2.928-.624h1.32V8.627H103.306L92.029,35.981,80.373,8.627H63.389V9.781h1.32a5.743,5.743,0,0,1,2.785.576,3.175,3.175,0,0,1,1.368,1.394,12.842,12.842,0,0,1,.331,3.894V45.069a5.94,5.94,0,0,1-.992,2.212,3.687,3.687,0,0,1-1.793,1.249,6.5,6.5,0,0,1-2.548.482h-.47v1.106h14.2V49.012A6.951,6.951,0,0,1,73.392,48a4.3,4.3,0,0,1-1.7-2.452,27.362,27.362,0,0,1-.143-3.8V12.569L87.736,50.118h.659l15.952-37.836V43a14.619,14.619,0,0,1-.331,3.894,2.9,2.9,0,0,1-1.226,1.442,5.638,5.638,0,0,1-2.928.673H98.494v1.106h21.659V49.012h-1.32a5.859,5.859,0,0,1-2.785-.576,3.438,3.438,0,0,1-1.417-1.442A15.421,15.421,0,0,1,114.3,43V15.645A13.83,13.83,0,0,1,114.632,11.848Z" transform="translate(109.227 8.146)" fill="183884" fill-rule="evenodd"/>
        <path id="Path_28858" data-name="Path 28858" d="M69.786,39.466c1.135,1.249,1.938,3.409,2.506,6.437h1.132V33.608H38.7V34.76h1.417a5.47,5.47,0,0,1,3.167.867,3.19,3.19,0,0,1,1.18,1.631c.046.385.094,1.539.094,3.458V67.992a14.841,14.841,0,0,1-.285,3.888,3.422,3.422,0,0,1-1.226,1.442,5.931,5.931,0,0,1-2.93.624H38.7V75.1H74.6l1.89-13.207H75.362A15.148,15.148,0,0,1,70.3,70.1,15.13,15.13,0,0,1,61,72.8H58.495a5.1,5.1,0,0,1-2.6-.482,2.689,2.689,0,0,1-1.086-1.249,17.484,17.484,0,0,1-.285-4.227V55.17a10.867,10.867,0,0,1,4.535.77A7.315,7.315,0,0,1,61.8,59.013a16.736,16.736,0,0,1,1.556,5.812h1.135V43.069H63.358q-.492,4.9-2.266,7.346c-1.18,1.633-3.119,2.452-5.764,2.452h-.8V36.011h4.3a22.891,22.891,0,0,1,6.425.576,8.655,8.655,0,0,1,4.535,2.882Z" transform="translate(63.537 54.376)" fill="183884" fill-rule="evenodd"/>
        <path id="Path_28859" data-name="Path 28859" d="M21.663,10.764h3.016V42.622a14.42,14.42,0,0,1-.331,3.831,2.737,2.737,0,0,1-1.32,1.485,5.357,5.357,0,0,1-2.873.624H18.789v1.149H40.505V48.563H39.094a5.615,5.615,0,0,1-2.779-.576,3.378,3.378,0,0,1-1.368-1.34,14.065,14.065,0,0,1-.331-4.025V10.764H37.68a8.911,8.911,0,0,1,4.051.527,8.488,8.488,0,0,1,3.3,2.731,17.684,17.684,0,0,1,2.121,5.507h1.132V8.369H11.064v11.16h1.177a11.021,11.021,0,0,1,3.344-7.041C16.811,11.291,18.883,10.715,21.663,10.764Z" transform="translate(12.394 7.669)" fill="183884" fill-rule="evenodd"/>
        <path id="Path_28860" data-name="Path 28860" d="M75.662,50.311a6.809,6.809,0,0,1,3.007-3.1,8.1,8.1,0,0,1,3.994-1.046,8.159,8.159,0,0,1,7.05,4.142,8.765,8.765,0,0,1,1.08,4.1,8.6,8.6,0,0,1-1.08,4.093,8.208,8.208,0,0,1-3.01,3.1,8.678,8.678,0,0,1-4.039,1.046A8.55,8.55,0,0,1,78.621,61.6a9.13,9.13,0,0,1-3.053-3.1,8.864,8.864,0,0,1-1.083-4.093,7.871,7.871,0,0,1,1.177-4.1m-1.505-.9a10.953,10.953,0,0,0-1.269,5,9.659,9.659,0,0,0,1.269,4.906,10.468,10.468,0,0,0,3.617,3.714,10.677,10.677,0,0,0,4.889,1.237,10.494,10.494,0,0,0,4.84-1.237,9.123,9.123,0,0,0,3.617-3.714,10.454,10.454,0,0,0,1.314-4.906,11.292,11.292,0,0,0-1.314-5,9.7,9.7,0,0,0-8.458-4.857,9.754,9.754,0,0,0-4.795,1.237,9.392,9.392,0,0,0-3.712,3.62" transform="translate(126.806 74.626)" fill="183884" fill-rule="evenodd"/>
        <path id="Path_28861" data-name="Path 28861" d="M76.463,47.637H78.39a4.464,4.464,0,0,1,1.739.191,1.271,1.271,0,0,1,.7.527,1.257,1.257,0,0,1,.237.815,1.533,1.533,0,0,1-.516,1.249,3.194,3.194,0,0,1-1.975.43H76.463V47.637m1.035,4.7a1.867,1.867,0,0,1,1.363.385A7.544,7.544,0,0,1,80.6,55.165l.986,1.725h2.07l-1.271-2.109a16.787,16.787,0,0,0-1.6-2.155,2.448,2.448,0,0,0-.892-.53,3.3,3.3,0,0,0,2.161-.958,3.015,3.015,0,0,0,.844-2.064,3.131,3.131,0,0,0-.516-1.582,2.383,2.383,0,0,0-1.314-1.055,10.323,10.323,0,0,0-2.68-.288H74.818V56.89h1.645V52.335Z" transform="translate(130.378 77.585)" fill="183884" fill-rule="evenodd"/>
        <path id="Path_28862" data-name="Path 28862" d="M61.6,64.638a3.827,3.827,0,0,1,.661-2.432,2.092,2.092,0,0,1,1.7-.81,2.046,2.046,0,0,1,1.651.861,4.28,4.28,0,0,1,.707,2.474,4.18,4.18,0,0,1-.658,2.623A2.182,2.182,0,0,1,64,68.116a2.1,2.1,0,0,1-1.7-.81A4.105,4.105,0,0,1,61.6,64.638Zm-.188-5.145H58.816V74.216H61.6V68.88a7.2,7.2,0,0,0,1.508,1.143,3.5,3.5,0,0,0,1.6.382,4.123,4.123,0,0,0,3.161-1.525A6.3,6.3,0,0,0,69.1,64.735a6.006,6.006,0,0,0-1.226-4.051,4.072,4.072,0,0,0-3.161-1.477,3.878,3.878,0,0,0-1.933.476,3.674,3.674,0,0,0-1.368,1.334Z" transform="translate(100.764 101.752)" fill="183884" fill-rule="evenodd"/>
        <path id="Path_28863" data-name="Path 28863" d="M67.617,61.062a3.264,3.264,0,0,0-1.28-1.38,3.824,3.824,0,0,0-1.944-.473,3.457,3.457,0,0,0-1.753.425,4.69,4.69,0,0,0-1.517,1.237,3.838,3.838,0,0,0-1.231-1.237,3.341,3.341,0,0,0-1.753-.425,4.294,4.294,0,0,0-3.321,1.662v-1.38H52.212V70.1h2.845V64.913a7.116,7.116,0,0,1,.191-2.186,1.642,1.642,0,0,1,.755-1,1.719,1.719,0,0,1,1.14-.331,1.489,1.489,0,0,1,.9.188,1.587,1.587,0,0,1,.428.667,6.789,6.789,0,0,1,.191,2V70.1h2.8V65.007a7.228,7.228,0,0,1,.237-2.186,1.971,1.971,0,0,1,.758-1.095,1.887,1.887,0,0,1,1.137-.331,1.408,1.408,0,0,1,1.186.522,5.26,5.26,0,0,1,.237,2.092V70.1h2.845V63.3A8.584,8.584,0,0,0,67.617,61.062Z" transform="translate(88.543 101.754)" fill="183884" fill-rule="evenodd"/>
        <path id="Path_28864" data-name="Path 28864" d="M66.837,62.349a2.422,2.422,0,0,1,1.85-.855,2.357,2.357,0,0,1,1.853.855,3.414,3.414,0,0,1,.758,2.38,3.573,3.573,0,0,1-.758,2.523,2.528,2.528,0,0,1-3.7,0,3.465,3.465,0,0,1-.758-2.477,3.4,3.4,0,0,1,.758-2.426m1.85-3.141a5.49,5.49,0,0,0-2.845.713,4.189,4.189,0,0,0-1.947,2,5.487,5.487,0,0,0-.71,2.711,6.139,6.139,0,0,0,.71,3.141,4.95,4.95,0,0,0,1.993,1.95,6.6,6.6,0,0,0,2.848.667,5.036,5.036,0,0,0,3.888-1.616,5.467,5.467,0,0,0,1.568-4.045,5.291,5.291,0,0,0-5.5-5.519Z" transform="translate(108.85 101.752)" fill="183884" fill-rule="evenodd"/>
        <path id="Path_28865" data-name="Path 28865" d="M77,60.37a2.968,2.968,0,0,0-1.14-.867,3.666,3.666,0,0,0-1.762-.336,4.043,4.043,0,0,0-3.469,1.827V59.455H68.01V70.19h2.808V65.281a11.741,11.741,0,0,1,.191-2.457,2.26,2.26,0,0,1,.807-1.06,2.429,2.429,0,0,1,1.334-.382,1.482,1.482,0,0,1,.952.239,1.427,1.427,0,0,1,.57.818,7.8,7.8,0,0,1,.237,2.263V70.19h2.808V63.5a9.048,9.048,0,0,0-.145-1.924A4.572,4.572,0,0,0,77,60.37Z" transform="translate(117.779 101.656)" fill="183884" fill-rule="evenodd"/>
        <path id="Path_28866" data-name="Path 28866" d="M75.282,63.872a2.309,2.309,0,0,1,.516-1.856,2.036,2.036,0,0,1,1.5-.616,1.872,1.872,0,0,1,1.457.616,2.8,2.8,0,0,1,.656,1.856H75.282Zm-1.594-3.187a7.03,7.03,0,0,0-.282,7.9,4.643,4.643,0,0,0,4.034,1.807,4.806,4.806,0,0,0,2.908-.855A4.863,4.863,0,0,0,82.035,67.2l-2.765-.428a2.311,2.311,0,0,1-.7,1.092,1.574,1.574,0,0,1-1.08.382,1.961,1.961,0,0,1-1.593-.713,2.535,2.535,0,0,1-.7-1.95h6.987a7.225,7.225,0,0,0-1.314-4.806A4.543,4.543,0,0,0,77.2,59.211,4.371,4.371,0,0,0,73.689,60.685Z" transform="translate(125.772 101.752)" fill="183884" fill-rule="evenodd"/>
        <path id="Path_28867" data-name="Path 28867" d="M84.567,59.5a3.268,3.268,0,0,0-1.7-.336A4.075,4.075,0,0,0,79.385,61V59.454H76.748V70.192h2.828V65.281a10.006,10.006,0,0,1,.237-2.454,2.069,2.069,0,0,1,.753-1.06,2.641,2.641,0,0,1,1.365-.385,1.457,1.457,0,0,1,.944.239,1.19,1.19,0,0,1,.564.821,7.64,7.64,0,0,1,.188,2.261v5.49h2.828V63.5a8.449,8.449,0,0,0-.191-1.927,2.8,2.8,0,0,0-.519-1.2A3.289,3.289,0,0,0,84.567,59.5Z" transform="translate(133.949 101.657)" fill="183884" fill-rule="evenodd"/>
        <path id="Path_28868" data-name="Path 28868" d="M88.436,59.208a4.981,4.981,0,0,0-3.33.906,3.216,3.216,0,0,0-1.078,2.377,2.748,2.748,0,0,0,1.22,2.38,14.441,14.441,0,0,0,4.267,1.38,2.174,2.174,0,0,1,.938.428c.14.094.185.285.234.525a1.293,1.293,0,0,1-.376.761,3.308,3.308,0,0,1-1.593.382,2.47,2.47,0,0,1-1.6-.476,1.83,1.83,0,0,1-.7-1.192l-2.814.428a4.379,4.379,0,0,0,1.639,2.38,5.9,5.9,0,0,0,3.469.9A5.278,5.278,0,0,0,92.233,69.3a3.192,3.192,0,0,0,1.22-2.523,2.35,2.35,0,0,0-.889-2.044,6.422,6.422,0,0,0-3.1-1.286,8.845,8.845,0,0,1-2.58-.81.6.6,0,0,1-.282-.522.749.749,0,0,1,.282-.573,2.763,2.763,0,0,1,1.593-.334,2.085,2.085,0,0,1,1.314.334,1.8,1.8,0,0,1,.656,1l2.625-.525a3.51,3.51,0,0,0-1.405-2.1A5.637,5.637,0,0,0,88.436,59.208Z" transform="translate(146.643 101.752)" fill="183884" fill-rule="evenodd"/>
        <path id="Path_28869" data-name="Path 28869" d="M85.039,61.766V57.918L82.231,59.6v2.164H80.965v2.215h1.266v4.712c0,.721.046,1.394.091,2.021a3.315,3.315,0,0,0,.422,1.152,1.618,1.618,0,0,0,.892.627,3.084,3.084,0,0,0,1.308.288,6.237,6.237,0,0,0,2.249-.433l-.282-2.212a3.238,3.238,0,0,1-1.075.288,1.4,1.4,0,0,1-.47-.194.625.625,0,0,1-.279-.336,9.38,9.38,0,0,1-.048-1.588V63.981h1.967V61.766Z" transform="translate(141.754 99.365)" fill="183884" fill-rule="evenodd"/>
        <rect id="Rectangle_977" data-name="Rectangle 977" width="2.896" height="14.857" transform="translate(17.232 156.988)" fill="183884"/>
        <path id="Path_28870" data-name="Path 28870" d="M6.882,63.662V60.355h7.891v-2.54H3.952V72.672H15.1V70.181H6.882V66.153h7.372V63.662Z" transform="translate(-0.768 99.174)" fill="183884" fill-rule="evenodd"/>
        <path id="Path_28871" data-name="Path 28871" d="M13.718,63.872a2.9,2.9,0,0,1,.564-1.856,2.036,2.036,0,0,1,1.5-.616,1.937,1.937,0,0,1,1.454.616,2.826,2.826,0,0,1,.656,1.856H13.718Zm-1.545-3.187a5.783,5.783,0,0,0-1.36,4.188,5.958,5.958,0,0,0,1.032,3.709,4.718,4.718,0,0,0,4.076,1.807,4.887,4.887,0,0,0,2.9-.855A5.535,5.535,0,0,0,20.514,67.2L17.7,66.774a2.026,2.026,0,0,1-.656,1.092,1.774,1.774,0,0,1-1.126.382,2.092,2.092,0,0,1-1.593-.713,3.533,3.533,0,0,1-.7-1.95h7.03c.046-2.238-.422-3.806-1.311-4.806a4.615,4.615,0,0,0-3.749-1.568A4.238,4.238,0,0,0,12.173,60.685Z" transform="translate(11.923 101.752)" fill="183884" fill-rule="evenodd"/>
        <path id="Path_28872" data-name="Path 28872" d="M20.35,61.766H19.039v2.212H20.35V68.69a12.837,12.837,0,0,0,.094,2.021,1.8,1.8,0,0,0,.422,1.155,1.341,1.341,0,0,0,.844.624,2.959,2.959,0,0,0,1.357.291,6.536,6.536,0,0,0,2.2-.436l-.237-2.209a3.368,3.368,0,0,1-1.169.288,3.108,3.108,0,0,1-.468-.194l-.188-.336-.046-5.915h1.87V61.766h-1.87V57.918L20.35,59.6Z" transform="translate(27.152 99.365)" fill="183884" fill-rule="evenodd"/>
        <path id="Path_28873" data-name="Path 28873" d="M23.278,60.018a5.317,5.317,0,0,0-3.064-.81,4.7,4.7,0,0,0-3.723,1.477,5.451,5.451,0,0,0-1.414,4.091,5.533,5.533,0,0,0,1.414,4.093,4.707,4.707,0,0,0,3.677,1.522,5.285,5.285,0,0,0,3.25-1,5.437,5.437,0,0,0,1.651-2.856l-2.782-.476a2.015,2.015,0,0,1-.7,1.525,1.787,1.787,0,0,1-1.274.476,1.937,1.937,0,0,1-1.7-.764,4.294,4.294,0,0,1-.661-2.662,3.856,3.856,0,0,1,.613-2.429,2.138,2.138,0,0,1,1.651-.807,1.718,1.718,0,0,1,1.271.428,1.928,1.928,0,0,1,.71,1.283l2.779-.476a5.06,5.06,0,0,0-1.7-2.617Z" transform="translate(19.82 101.752)" fill="183884" fill-rule="evenodd"/>
        <path id="Path_28874" data-name="Path 28874" d="M28.936,59.7a3.146,3.146,0,0,0-1.918-.53,1.816,1.816,0,0,0-1.2.339,5.811,5.811,0,0,0-1.2,1.442V59.457H21.986V70.192h2.828V66.871a16.018,16.018,0,0,1,.239-3.612,2.133,2.133,0,0,1,.624-1.154,1.361,1.361,0,0,1,1.055-.385,2.684,2.684,0,0,1,1.343.479l.861-2.5" transform="translate(32.606 101.657)" fill="183884" fill-rule="evenodd"/>
        <path id="Path_28875" data-name="Path 28875" d="M27.673,64.775a3.631,3.631,0,0,1,.761-2.429,2.428,2.428,0,0,1,1.85-.855,2.3,2.3,0,0,1,1.85.855,3.582,3.582,0,0,1,.758,2.38,3.813,3.813,0,0,1-.758,2.523,2.481,2.481,0,0,1-1.85.81,2.555,2.555,0,0,1-1.85-.81,3.682,3.682,0,0,1-.761-2.474m-2.181-2.856a5.523,5.523,0,0,0-.713,2.714,6.156,6.156,0,0,0,.713,3.139,4.922,4.922,0,0,0,1.993,1.953,6.222,6.222,0,0,0,2.8.667,5.142,5.142,0,0,0,3.937-1.619,5.39,5.39,0,0,0,1.565-4.045,5.36,5.36,0,0,0-5.5-5.519,5.5,5.5,0,0,0-2.848.713,4.171,4.171,0,0,0-1.944,2Z" transform="translate(37.777 101.752)" fill="183884" fill-rule="evenodd"/>
        <rect id="Rectangle_978" data-name="Rectangle 978" width="2.896" height="2.648" transform="translate(89.347 156.988)" fill="183884"/>
        <path id="Path_28876" data-name="Path 28876" d="M37.415,59.5a3.2,3.2,0,0,0-1.7-.336A4.274,4.274,0,0,0,32.21,61V59.454h-2.6V70.192H32.4V65.281a8.244,8.244,0,0,1,.237-2.454,1.835,1.835,0,0,1,.8-1.06,2.346,2.346,0,0,1,1.28-.385,1.535,1.535,0,0,1,.995.239,1.113,1.113,0,0,1,.567.821,7.64,7.64,0,0,1,.188,2.261v5.49h2.839V63.5a6.864,6.864,0,0,0-.188-1.927,2.749,2.749,0,0,0-.519-1.2A3.048,3.048,0,0,0,37.415,59.5Z" transform="translate(46.71 101.657)" fill="183884" fill-rule="evenodd"/>
        <path id="Path_28877" data-name="Path 28877" d="M39.695,67.3a4.433,4.433,0,0,1-.613-2.665,3.561,3.561,0,0,1,.613-2.426,2.153,2.153,0,0,1,2.97-.382,2.348,2.348,0,0,1,.613,1.286l2.734-.476a4.836,4.836,0,0,0-1.651-2.617,5.114,5.114,0,0,0-3.064-.81,4.766,4.766,0,0,0-3.723,1.477,5.586,5.586,0,0,0-1.414,4.091,5.75,5.75,0,0,0,1.414,4.093,4.7,4.7,0,0,0,3.674,1.522,5.358,5.358,0,0,0,3.3-1,5.3,5.3,0,0,0,1.6-2.853l-2.734-.479a2.417,2.417,0,0,1-.707,1.525,1.969,1.969,0,0,1-1.32.473,2.05,2.05,0,0,1-1.7-.761Z" transform="translate(58.837 101.752)" fill="183884" fill-rule="evenodd"/>
        <rect id="Rectangle_979" data-name="Rectangle 979" width="2.896" height="10.738" transform="translate(89.347 161.107)" fill="183884"/>
        <path id="Path_28878" data-name="Path 28878" d="M50.837,61a3.157,3.157,0,0,1,1.038,1.762l2.973-.619a6.332,6.332,0,0,0-1.511-2.811A6.165,6.165,0,0,0,49,57.763a6.043,6.043,0,0,0-4.906,2.05,7.953,7.953,0,0,0-1.936,5.718,7.628,7.628,0,0,0,1.936,5.53,5.792,5.792,0,0,0,4.669,2,6.006,6.006,0,0,0,3.92-1.192A6.733,6.733,0,0,0,54.9,68.3l-2.925-.907a4.241,4.241,0,0,1-1.18,2.383,3.274,3.274,0,0,1-4.627-.43,6.424,6.424,0,0,1-.992-4.051,5.777,5.777,0,0,1,.992-3.766,3.365,3.365,0,0,1,2.643-1.192A3.239,3.239,0,0,1,50.837,61Z" transform="translate(69.929 99.078)" fill="183884" fill-rule="evenodd"/>
        <path id="Path_28879" data-name="Path 28879" d="M51.094,62.349a2.445,2.445,0,0,1,1.9-.855,2.356,2.356,0,0,1,1.85.855,3.419,3.419,0,0,1,.758,2.38,3.573,3.573,0,0,1-.758,2.523,2.557,2.557,0,0,1-1.85.807,2.66,2.66,0,0,1-1.9-.807,4.588,4.588,0,0,1,0-4.9m7.4,2.38a5.49,5.49,0,0,0-1.565-3.948,5.2,5.2,0,0,0-3.937-1.574,5.5,5.5,0,0,0-2.848.715,4.5,4.5,0,0,0-1.993,2,6.174,6.174,0,0,0-.664,2.714,6.982,6.982,0,0,0,.664,3.141,5.022,5.022,0,0,0,2.041,1.95,6.378,6.378,0,0,0,2.8.667,5.289,5.289,0,0,0,3.937-1.619,5.647,5.647,0,0,0,1.565-4.042Z" transform="translate(79.8 101.752)" fill="183884" fill-rule="evenodd"/>
        <path id="Path_28880" data-name="Path 28880" d="M29.3,79.894v3.649h5.071v2.363H29.3v4.675h7.1v2.471H26.526V77.422H36.4v2.472H29.3m8.937,12.289,1.029-2.5A5.611,5.611,0,0,0,42.5,90.843q2.446,0,2.446-1.7a2.4,2.4,0,0,0-.579-1.522,7.407,7.407,0,0,0-2.377-1.625,11.469,11.469,0,0,1-2.432-1.479,3.95,3.95,0,0,1-.961-1.38,4.479,4.479,0,0,1-.339-1.773,3.871,3.871,0,0,1,1.328-3A4.9,4.9,0,0,1,43,77.16a6.357,6.357,0,0,1,3.982,1.015l-.841,2.395a5.224,5.224,0,0,0-3.087-1.049,2.064,2.064,0,0,0-1.491.507,1.737,1.737,0,0,0-.527,1.314q0,1.343,2.982,2.791a9.667,9.667,0,0,1,2.266,1.414,4.321,4.321,0,0,1,1.055,1.5,4.856,4.856,0,0,1,.365,1.918,3.848,3.848,0,0,1-1.5,3.121,6.12,6.12,0,0,1-4.014,1.229A7.154,7.154,0,0,1,38.236,92.183ZM56.492,79.894V93.052H53.715V79.894H48.732V77.422H61.694v2.472Zm4.852,11.753a1.924,1.924,0,0,1,3.848,0,1.924,1.924,0,1,1-3.848,0m19.837,1.405V77.086l-4.256,2.645V77.08a20.956,20.956,0,0,0,3.438-2.241,16.468,16.468,0,0,0,2.825-2.714h.849V93.052Zm13.737.351-1.371-1.517c.827-.331,2.035-1.454,3.623-3.355s2.463-3.381,2.628-4.413a4.544,4.544,0,0,1-3.284,1.123,5.793,5.793,0,0,1-4.424-1.765,6.813,6.813,0,0,1-1.662-4.852A6.989,6.989,0,0,1,92.144,73.7a5.6,5.6,0,0,1,4.307-1.867q6.859,0,6.859,9.088a13.8,13.8,0,0,1-2.691,7.748Q97.93,92.635,94.918,93.4Zm5.391-14.695q0-4.451-3.652-4.453a2.892,2.892,0,0,0-2.426,1.16,5.766,5.766,0,0,0,.048,6.229,2.957,2.957,0,0,0,2.42,1.18q3.6,0,3.609-4.113Zm9.364,2.748a5.866,5.866,0,0,1-2.161-1.975,4.7,4.7,0,0,1-.841-2.623,4.591,4.591,0,0,1,1.574-3.672,6.932,6.932,0,0,1,8.224,0,4.754,4.754,0,0,1,1.482,3.686,5.165,5.165,0,0,1-.9,2.782,6.032,6.032,0,0,1-2.075,2.089q3.754,2.108,3.754,5.539A5.759,5.759,0,0,1,117,91.755a6.815,6.815,0,0,1-4.769,1.588q-6.316,0-6.32-6.06A6.323,6.323,0,0,1,107,83.833,5.981,5.981,0,0,1,109.673,81.456Zm3.483-.884a5.226,5.226,0,0,0,1.938-3.769,2.38,2.38,0,0,0-.773-1.861,2.922,2.922,0,0,0-2.013-.687q-2.784,0-2.782,2.574Q109.527,78.736,113.156,80.572ZM111.9,82.7q-3.13,1.693-3.13,4.587a3.67,3.67,0,0,0,.966,2.6,3.247,3.247,0,0,0,2.5,1.046,3.521,3.521,0,0,0,3.649-3.643,3.736,3.736,0,0,0-.71-2.172A9.918,9.918,0,0,0,111.9,82.7ZM125.479,93.4l-1.371-1.517c.827-.331,2.035-1.454,3.623-3.355s2.463-3.381,2.628-4.413a4.544,4.544,0,0,1-3.284,1.123,5.793,5.793,0,0,1-4.424-1.765,6.813,6.813,0,0,1-1.662-4.852,7,7,0,0,1,1.716-4.923,5.6,5.6,0,0,1,4.307-1.867q6.859,0,6.859,9.088a13.8,13.8,0,0,1-2.691,7.748Q128.491,92.635,125.479,93.4Zm5.391-14.695q0-4.451-3.652-4.453a2.892,2.892,0,0,0-2.426,1.16,5.781,5.781,0,0,0,.048,6.229,2.957,2.957,0,0,0,2.42,1.18q3.609,0,3.609-4.113Z" transform="translate(41.008 125.12)" fill="#fff"/>
        <rect id="Rectangle_980" data-name="Rectangle 980" width="31.183" height="3.977" transform="translate(194.344 208.499)" fill="#fff"/>
        <rect id="Rectangle_981" data-name="Rectangle 981" width="31.183" height="3.977" transform="translate(16.887 208.499)" fill="#fff"/>
    </g>
</svg>